M48
;Layer_Color=9474304
;FILE_FORMAT=2:5
INCH,LZ
;TYPE=PLATED
T1F00S00C0.01575
T2F00S00C0.03150
T3F00S00C0.03543
T4F00S00C0.03937
%
T01
X0022047Y003622
X0032283Y0036614
X0046457Y0040157
X0047638Y0045276
X0047244Y0050787
Y0055905
X0051181Y0064961
X0034646Y0068642
X0029528Y0066535
X0026378Y0070866
X0032677Y0075197
X0047244Y008937
X007126Y008189
X0072835Y0076772
X0068898Y0059842
X0069363Y0053937
X0068898Y004685
X0070472Y0041339
X0065354Y0040945
X-0002362Y0075984
X0014961Y0102756
X0074803Y0088976
X0077953Y0072835
X0094882Y0072047
X0092913Y0076772
X0102756Y0060236
X0108268Y0051968
X0113779Y0050394
X0121653Y0052362
X0122047Y0047638
Y004252
X0127559Y003189
Y0025984
X0135433Y0014567
X009252Y002126
X0088189Y0035433
X0095276Y0038189
X0093701Y0048425
X008937Y0044488
X0084646Y0050394
X0074803Y0023622
X0121653Y0059842
X0133071Y0068504
X0122835Y008189
X0135827Y0098032
X0135039Y0107874
X0145669Y0109449
X0168504Y0111024
X015315Y0085433
X0104724Y0109843
X0085039Y0110236
T02
X0010236Y005063
Y0069842
X0028427Y0093701
X0036927
X0155199Y0030709
X0163699
T03
X0070079Y0098819
X0077953
X0085827
X0093701
X0161024Y0066929
X0161024Y0049606
T04
X0Y0
X001
X002
X003
X004
X005
X006
X007
Y012
X006
X005
X004
X003
X002
X001
X0
X008
X009
X01
X011
X012
X013
X014
X015
X016
Y0
X015
X014
X013
X012
X011
X01
X009
X008
M30
