G04*
G04 #@! TF.GenerationSoftware,Altium Limited,Altium Designer,20.2.6 (244)*
G04*
G04 Layer_Physical_Order=1*
G04 Layer_Color=65280*
%FSLAX25Y25*%
%MOIN*%
G70*
G04*
G04 #@! TF.SameCoordinates,05D6BC93-F204-4B59-986D-561AD4BAE22A*
G04*
G04*
G04 #@! TF.FilePolarity,Positive*
G04*
G01*
G75*
%ADD11C,0.00787*%
%ADD12C,0.00800*%
%ADD14C,0.00984*%
%ADD15C,0.01000*%
%ADD16C,0.01968*%
%ADD34C,0.01575*%
%ADD43R,0.13000X0.07800*%
%ADD44R,0.12992X0.01968*%
%ADD45R,0.07874X0.07800*%
%ADD46R,0.03937X0.04331*%
%ADD47R,0.03150X0.03150*%
%ADD48R,0.05000X0.05000*%
%ADD49R,0.01200X0.05500*%
%ADD50R,0.03150X0.03150*%
%ADD51R,0.02559X0.06000*%
%ADD52R,0.01968X0.06000*%
%ADD53R,0.06000X0.13000*%
%ADD54R,0.05000X0.03600*%
%ADD55R,0.03600X0.03600*%
%ADD56R,0.05512X0.01181*%
%ADD57R,0.01181X0.05512*%
%ADD58R,0.10000X0.06000*%
%ADD59C,0.01181*%
%ADD60R,0.07000X0.07000*%
%ADD61C,0.07000*%
%ADD62C,0.03543*%
%ADD63R,0.08268X0.22835*%
%ADD64R,0.05512X0.05512*%
%ADD65O,0.05118X0.05906*%
G36*
X181064Y96850D02*
X174555D01*
Y97051D01*
X166193D01*
Y96850D01*
X155905D01*
Y80869D01*
X127165Y80869D01*
X127165Y70866D01*
X141925Y70866D01*
Y70706D01*
X155905D01*
Y66535D01*
X150098D01*
Y64567D01*
X149606D01*
Y64075D01*
X142126D01*
Y63583D01*
X141929D01*
Y60275D01*
X136221D01*
Y66142D01*
X130709D01*
Y60630D01*
Y55512D01*
Y50394D01*
Y45276D01*
X130315Y45276D01*
Y39764D01*
Y34646D01*
X135744D01*
X136352Y34038D01*
X136586Y33493D01*
X136586D01*
X136586Y33493D01*
Y31201D01*
X139370D01*
X142154D01*
Y32639D01*
X148856D01*
X150975Y30520D01*
X150714Y29890D01*
X143689D01*
Y23928D01*
X146682D01*
X146846Y23104D01*
X147325Y22388D01*
X147792Y21920D01*
Y9449D01*
X146063D01*
Y9449D01*
X132964D01*
X129395Y13017D01*
X128842Y13387D01*
X128189Y13517D01*
X114880D01*
X111836Y16561D01*
X111283Y16930D01*
X110630Y17060D01*
X91258D01*
X85958Y22360D01*
Y43364D01*
X86588Y43489D01*
X86791Y42999D01*
X87264Y42382D01*
X87881Y41909D01*
X88599Y41611D01*
X89370Y41510D01*
X89790Y41565D01*
X90420Y41101D01*
Y32283D01*
X90550Y31631D01*
X90920Y31077D01*
X97244Y24753D01*
Y21728D01*
X97999D01*
Y21555D01*
X98129Y20902D01*
X98498Y20349D01*
X99089Y19758D01*
X99642Y19388D01*
X100295Y19259D01*
X120177D01*
X120830Y19388D01*
X121384Y19758D01*
X121704Y20079D01*
X124803D01*
Y23691D01*
X125433Y23904D01*
X125453Y23878D01*
X126070Y23405D01*
X126788Y23108D01*
X127559Y23006D01*
X127933Y23055D01*
X128644Y22345D01*
X129230Y21953D01*
X129921Y21816D01*
X130315D01*
Y20472D01*
X135827D01*
Y20472D01*
X136389Y20309D01*
Y20228D01*
X142351D01*
Y26190D01*
X136389D01*
Y26148D01*
X135827Y25984D01*
Y25984D01*
X131005D01*
X130817Y26375D01*
X130878Y26556D01*
X131179Y26969D01*
X132579D01*
Y29035D01*
X130512D01*
Y28021D01*
X129882Y27808D01*
X129665Y28090D01*
X129048Y28563D01*
X128330Y28861D01*
X127559Y28962D01*
X126788Y28861D01*
X126070Y28563D01*
X125453Y28090D01*
X125433Y28064D01*
X124803Y28278D01*
Y31890D01*
X119291D01*
X118898Y32357D01*
Y36220D01*
X116617D01*
Y39781D01*
X119193D01*
Y40355D01*
X119822Y40569D01*
X119941Y40414D01*
X120558Y39941D01*
X121276Y39643D01*
X122047Y39542D01*
X122818Y39643D01*
X123386Y39878D01*
X124016Y39764D01*
X124213Y39215D01*
Y37894D01*
X129331D01*
Y39764D01*
X129527D01*
Y45276D01*
X129724Y45472D01*
X129724D01*
Y47539D01*
X127165D01*
Y48524D01*
X129724D01*
Y50394D01*
X129921D01*
Y55512D01*
Y61024D01*
X129724D01*
Y62894D01*
X127165D01*
X124606D01*
Y61880D01*
X123976Y61666D01*
X123759Y61949D01*
X123143Y62422D01*
X122424Y62719D01*
X121653Y62821D01*
X120883Y62719D01*
X120164Y62422D01*
X119747Y62102D01*
X119117Y62367D01*
Y63381D01*
X119193D01*
Y71243D01*
X117066D01*
X116805Y71873D01*
X117373Y72441D01*
X120472D01*
Y75540D01*
X123551Y78619D01*
X123895Y79133D01*
X124324Y79311D01*
X124941Y79784D01*
X125414Y80401D01*
X125711Y81119D01*
X125813Y81890D01*
X125711Y82661D01*
X125414Y83379D01*
X124941Y83996D01*
X124324Y84469D01*
X123606Y84767D01*
X122835Y84868D01*
X122064Y84767D01*
X121345Y84469D01*
X120881Y84113D01*
X120276Y84055D01*
X120276Y84055D01*
X120276Y84055D01*
X118209D01*
Y81496D01*
X117224D01*
Y84055D01*
X115354D01*
Y88189D01*
X109843D01*
Y85701D01*
X109213Y85372D01*
X109055Y85481D01*
Y88189D01*
X103543D01*
Y82677D01*
X103740D01*
Y80807D01*
X106299D01*
Y79823D01*
X103740D01*
Y78386D01*
X103740Y77756D01*
X103740D01*
Y77756D01*
X103740D01*
Y75689D01*
X106299D01*
Y74705D01*
X103740D01*
Y73578D01*
X101473D01*
X100919Y74132D01*
Y77953D01*
X102362D01*
Y84016D01*
X102362Y84646D01*
X102362D01*
Y84646D01*
X102362D01*
Y90292D01*
X107353D01*
X108006Y90422D01*
X108559Y90792D01*
X128475Y110708D01*
X132414D01*
X133066Y110837D01*
X133620Y111207D01*
X138123Y115711D01*
X138778Y115439D01*
X140000Y115278D01*
X141222Y115439D01*
X141967Y115748D01*
X148033D01*
X148778Y115439D01*
X150000Y115278D01*
X151222Y115439D01*
X151967Y115748D01*
X158033D01*
X158778Y115439D01*
X160000Y115278D01*
X161222Y115439D01*
X161967Y115748D01*
X164567D01*
Y118826D01*
X164722Y120000D01*
X164567Y121174D01*
Y124409D01*
X161587D01*
X161222Y124561D01*
X160000Y124722D01*
X158778Y124561D01*
X158413Y124409D01*
X151587D01*
X151222Y124561D01*
X150000Y124722D01*
X148778Y124561D01*
X148413Y124409D01*
X141587D01*
X141222Y124561D01*
X140000Y124722D01*
X138778Y124561D01*
X138413Y124409D01*
X131587D01*
X131222Y124561D01*
X130000Y124722D01*
X128778Y124561D01*
X128413Y124409D01*
X121587D01*
X121222Y124561D01*
X120000Y124722D01*
X118778Y124561D01*
X118413Y124409D01*
X111587D01*
X111222Y124561D01*
X110000Y124722D01*
X108778Y124561D01*
X108413Y124409D01*
X101587D01*
X101222Y124561D01*
X100000Y124722D01*
X98778Y124561D01*
X98413Y124409D01*
X91587D01*
X91222Y124561D01*
X90000Y124722D01*
X88778Y124561D01*
X88413Y124409D01*
X81587D01*
X81222Y124561D01*
X80000Y124722D01*
X78778Y124561D01*
X78413Y124409D01*
X71587D01*
X71222Y124561D01*
X70000Y124722D01*
X68778Y124561D01*
X68413Y124409D01*
X61587D01*
X61222Y124561D01*
X60000Y124722D01*
X58778Y124561D01*
X58413Y124409D01*
X51587D01*
X51222Y124561D01*
X50000Y124722D01*
X48778Y124561D01*
X48413Y124409D01*
X41587D01*
X41222Y124561D01*
X40000Y124722D01*
X38778Y124561D01*
X38413Y124409D01*
X31587D01*
X31222Y124561D01*
X30000Y124722D01*
X28778Y124561D01*
X28413Y124409D01*
X21587D01*
X21222Y124561D01*
X20000Y124722D01*
X18778Y124561D01*
X18413Y124409D01*
X11587D01*
X11222Y124561D01*
X10000Y124722D01*
X8778Y124561D01*
X8413Y124409D01*
X4681D01*
Y124681D01*
X-4681D01*
Y115319D01*
X2269D01*
X5774Y111813D01*
Y94488D01*
X5904Y93835D01*
X6274Y93282D01*
X8611Y90945D01*
X8605Y90837D01*
X8407Y90315D01*
X4921D01*
Y86221D01*
X1181D01*
Y71785D01*
X394D01*
Y72835D01*
X-5118D01*
Y67323D01*
X394D01*
Y68373D01*
X1181D01*
Y52100D01*
X394D01*
Y53150D01*
X-5118D01*
Y47638D01*
X394D01*
Y48688D01*
X1181D01*
Y34252D01*
X4921D01*
Y30158D01*
X15551D01*
Y34252D01*
X19291D01*
X19291Y34252D01*
Y34252D01*
X19910Y34155D01*
X19941Y34115D01*
X20558Y33641D01*
X21276Y33344D01*
X22047Y33242D01*
X22818Y33344D01*
X23536Y33641D01*
X24153Y34115D01*
X24626Y34731D01*
X24924Y35450D01*
X25025Y36220D01*
X24924Y36991D01*
X24626Y37710D01*
X24153Y38326D01*
X24127Y38346D01*
X24341Y38976D01*
X24803D01*
Y39173D01*
X26673D01*
Y41732D01*
X27657D01*
Y39173D01*
X29094D01*
X29724Y39173D01*
Y39173D01*
X29724D01*
Y39173D01*
X31791D01*
Y41732D01*
X32776D01*
Y39173D01*
X33727D01*
Y14093D01*
X33545Y13911D01*
X30709D01*
X30346Y14209D01*
Y14961D01*
X30224Y15575D01*
X29875Y16096D01*
X29875Y16096D01*
X29088Y16883D01*
X28567Y17232D01*
X27953Y17354D01*
X27338Y17232D01*
X27165Y17116D01*
X26992Y17232D01*
X26378Y17354D01*
X26378Y17354D01*
X25591D01*
X24976Y17232D01*
X24455Y16883D01*
X24372Y16875D01*
X24364Y16883D01*
X23843Y17232D01*
X23228Y17354D01*
X23228Y17354D01*
X22466D01*
X22350Y17937D01*
X22002Y18458D01*
X21481Y18806D01*
X20866Y18928D01*
X20252Y18806D01*
X19856Y18542D01*
X19393Y18743D01*
X19267Y18849D01*
X19792Y22098D01*
X19769Y22726D01*
X19507Y23298D01*
X19046Y23726D01*
X18685Y23861D01*
X17964Y26745D01*
X17913Y26854D01*
X17889Y26971D01*
X17780Y27136D01*
X17695Y27314D01*
X17606Y27395D01*
X17540Y27494D01*
X17376Y27604D01*
X17229Y27737D01*
X17117Y27777D01*
X17017Y27844D01*
X16823Y27882D01*
X16637Y27949D01*
X16518Y27943D01*
X16400Y27966D01*
X13000D01*
X12882Y27943D01*
X12763Y27949D01*
X12577Y27882D01*
X12383Y27844D01*
X12283Y27777D01*
X12171Y27737D01*
X12024Y27604D01*
X11860Y27494D01*
X11794Y27395D01*
X11705Y27314D01*
X11620Y27136D01*
X11511Y26971D01*
X11487Y26854D01*
X11436Y26745D01*
X10941Y24766D01*
X10400D01*
X10343Y24755D01*
X10286Y24762D01*
X10037Y24694D01*
X9886Y24664D01*
X9617Y24844D01*
X9000Y24966D01*
X7827Y24966D01*
X6861Y27036D01*
X6800Y27119D01*
X6763Y27215D01*
X6616Y27370D01*
X6489Y27543D01*
X6401Y27597D01*
X6330Y27671D01*
X6134Y27758D01*
X5951Y27869D01*
X5849Y27885D01*
X5755Y27927D01*
X5541Y27932D01*
X5329Y27965D01*
X5229Y27940D01*
X5126Y27943D01*
X4926Y27866D01*
X4718Y27815D01*
X4635Y27754D01*
X4539Y27717D01*
X4384Y27570D01*
X4299Y27507D01*
X4065Y27437D01*
X3811Y27427D01*
X3681Y27454D01*
X3503Y27529D01*
X3501Y27532D01*
X3351Y27625D01*
X3219Y27743D01*
X3086Y27790D01*
X2966Y27864D01*
X2792Y27892D01*
X2625Y27951D01*
X2484Y27943D01*
X2345Y27966D01*
X2173Y27925D01*
X1997Y27915D01*
X1870Y27854D01*
X1733Y27822D01*
X1589Y27719D01*
X1431Y27642D01*
X1337Y27537D01*
X1222Y27455D01*
X1129Y27305D01*
X1011Y27173D01*
X965Y27040D01*
X891Y26920D01*
X41Y24655D01*
X-17Y24644D01*
X-540Y24294D01*
X-889Y23771D01*
X-1012Y23154D01*
X-889Y22537D01*
X-540Y22014D01*
X-17Y21665D01*
X600Y21542D01*
X1200Y21542D01*
X1227Y21548D01*
X1255Y21543D01*
X1535Y21609D01*
X1817Y21665D01*
X2085Y21125D01*
X2439Y19751D01*
X2547Y19526D01*
X2309Y18925D01*
X2217Y18821D01*
X2142Y18806D01*
X1620Y18458D01*
X1620Y18458D01*
X1181Y18019D01*
X742Y18458D01*
X221Y18806D01*
X-394Y18928D01*
X-394Y18928D01*
X-1969D01*
X-2583Y18806D01*
X-3104Y18458D01*
X-3104Y18458D01*
X-3754Y17808D01*
X-4369Y17911D01*
X-4422Y17937D01*
X-4770Y18458D01*
X-5291Y18806D01*
X-5906Y18928D01*
X-6520Y18806D01*
X-7041Y18458D01*
X-7041Y18458D01*
X-7206Y18293D01*
X-7835Y18554D01*
X-7835Y127914D01*
X181064D01*
Y96850D01*
D02*
G37*
G36*
X122990Y115166D02*
X103624Y95801D01*
X97113D01*
X96835Y96365D01*
X96968Y96539D01*
X97345Y97449D01*
X97473Y98425D01*
Y99213D01*
X97345Y100189D01*
X96968Y101099D01*
X96368Y101880D01*
X95587Y102480D01*
X94677Y102857D01*
X93701Y102985D01*
X92724Y102857D01*
X91815Y102480D01*
X91033Y101880D01*
X90434Y101099D01*
X90057Y100189D01*
X89982Y99621D01*
X89347Y99621D01*
X89279Y100138D01*
X88922Y100999D01*
X88354Y101740D01*
X87614Y102308D01*
X86752Y102665D01*
X86319Y102722D01*
Y98819D01*
X85335D01*
Y102722D01*
X84902Y102665D01*
X84040Y102308D01*
X83300Y101740D01*
X82732Y100999D01*
X82375Y100138D01*
X82307Y99621D01*
X81671D01*
X81597Y100189D01*
X81220Y101099D01*
X80620Y101880D01*
X79839Y102480D01*
X78929Y102857D01*
X77953Y102985D01*
X76976Y102857D01*
X76581Y102693D01*
X75979Y103048D01*
X75931Y103518D01*
X88123Y115711D01*
X88778Y115439D01*
X90000Y115278D01*
X91222Y115439D01*
X91967Y115748D01*
X98033D01*
X98778Y115439D01*
X100000Y115278D01*
X101222Y115439D01*
X101967Y115748D01*
X108033D01*
X108778Y115439D01*
X110000Y115278D01*
X111222Y115439D01*
X111967Y115748D01*
X118033D01*
X118778Y115439D01*
X120000Y115278D01*
X121222Y115439D01*
X121967Y115748D01*
X122749D01*
X122990Y115166D01*
D02*
G37*
G36*
X48778Y115439D02*
X49558Y115337D01*
Y92111D01*
X48928Y91800D01*
X48733Y91949D01*
X48015Y92247D01*
X47244Y92348D01*
X46473Y92247D01*
X45755Y91949D01*
X45138Y91476D01*
X44908Y91176D01*
X40864D01*
Y97638D01*
X32994D01*
X32990Y97638D01*
Y97638D01*
X32364D01*
Y97638D01*
X31706D01*
Y115640D01*
X31967Y115748D01*
X38033D01*
X38778Y115439D01*
X40000Y115278D01*
X41222Y115439D01*
X41967Y115748D01*
X48033D01*
X48778Y115439D01*
D02*
G37*
G36*
X28294Y115640D02*
Y97638D01*
X26903D01*
X25697Y98844D01*
X25143Y99214D01*
X24490Y99344D01*
X24016D01*
Y100394D01*
X18504D01*
Y94882D01*
X24016D01*
X24490Y94507D01*
Y89764D01*
X30636D01*
X30957Y89177D01*
X30737Y88583D01*
X29921D01*
Y83422D01*
X29921Y83071D01*
X30118Y82522D01*
Y80807D01*
X35236D01*
Y82522D01*
X35433Y83071D01*
X35433Y83422D01*
Y87564D01*
X44908D01*
X45138Y87264D01*
X45438Y87034D01*
Y85433D01*
X44488D01*
Y79921D01*
Y74803D01*
X45520D01*
Y71256D01*
Y68527D01*
X44488D01*
X44027Y68435D01*
X43637Y68174D01*
X43376Y67784D01*
X43284Y67323D01*
Y65744D01*
X38519D01*
X37175Y67088D01*
X37225Y67153D01*
X37522Y67871D01*
X37624Y68642D01*
X37522Y69412D01*
X37225Y70131D01*
X36752Y70748D01*
X36135Y71221D01*
X35416Y71518D01*
X34646Y71620D01*
X33875Y71518D01*
X33157Y71221D01*
X32540Y70748D01*
X32066Y70131D01*
X31769Y69412D01*
X31759Y69339D01*
X31087Y69060D01*
X31017Y69115D01*
X30298Y69412D01*
X29687Y69493D01*
X29230Y70037D01*
X29255Y70095D01*
X29356Y70866D01*
X29255Y71637D01*
X28957Y72355D01*
X28484Y72972D01*
X28084Y73279D01*
Y77559D01*
X29134D01*
Y82441D01*
X29134Y83071D01*
X29134D01*
Y83071D01*
X29134D01*
Y88583D01*
X23664D01*
X23647Y88608D01*
X17735Y94521D01*
X17520Y95079D01*
X17520D01*
X17520Y95079D01*
Y97146D01*
X14961D01*
Y97638D01*
X14469D01*
Y100197D01*
X12402D01*
Y98214D01*
X11772Y97877D01*
X11706Y97921D01*
Y115640D01*
X11967Y115748D01*
X18033D01*
X18778Y115439D01*
X20000Y115278D01*
X21222Y115439D01*
X21967Y115748D01*
X28033D01*
X28294Y115640D01*
D02*
G37*
G36*
X68923Y102782D02*
X68192Y102480D01*
X67411Y101880D01*
X66812Y101099D01*
X66435Y100189D01*
X66306Y99213D01*
Y98425D01*
X66435Y97449D01*
X66812Y96539D01*
X67411Y95758D01*
X68192Y95158D01*
X69102Y94781D01*
X70079Y94653D01*
X71055Y94781D01*
X71680Y95040D01*
X72310Y94680D01*
Y93308D01*
X61426Y82424D01*
X60844Y82665D01*
Y98431D01*
X65825Y103412D01*
X68798D01*
X68923Y102782D01*
D02*
G37*
G36*
X97507Y73426D02*
X97636Y72773D01*
X98006Y72219D01*
X98401Y71825D01*
X98160Y71243D01*
X98130D01*
Y63381D01*
X106693D01*
Y63578D01*
X106919D01*
Y67312D01*
X107904D01*
Y63578D01*
X108130D01*
Y63381D01*
X108136D01*
Y62124D01*
X104018Y58005D01*
X97382D01*
Y60061D01*
X91407D01*
Y61396D01*
X93209D01*
Y64880D01*
X93701D01*
D01*
X93209D01*
Y68364D01*
X91407D01*
Y73518D01*
X92037Y73939D01*
X92143Y73895D01*
X92913Y73793D01*
X93684Y73895D01*
X94402Y74192D01*
X95019Y74666D01*
X95493Y75283D01*
X95790Y76001D01*
X95892Y76772D01*
X95805Y77430D01*
X96086Y77780D01*
X96302Y77953D01*
X97507D01*
Y73426D01*
D02*
G37*
G36*
X82375Y97500D02*
X82732Y96638D01*
X83300Y95898D01*
X84040Y95330D01*
X84902Y94973D01*
X85664Y94873D01*
X85969Y94287D01*
X84620Y92939D01*
X84251Y92385D01*
X84121Y91732D01*
Y72638D01*
X83563D01*
Y70079D01*
Y67520D01*
X84121D01*
Y66535D01*
X80315D01*
Y65779D01*
X73251D01*
Y67323D01*
X73160Y67784D01*
X72899Y68174D01*
X72508Y68435D01*
X72047Y68527D01*
X70752D01*
Y69947D01*
X72047D01*
X72700Y70077D01*
X73254Y70447D01*
X79159Y76353D01*
X79529Y76906D01*
X79659Y77559D01*
Y95083D01*
X79839Y95158D01*
X80620Y95758D01*
X81220Y96539D01*
X81597Y97449D01*
X81671Y98016D01*
X82307D01*
X82375Y97500D01*
D02*
G37*
G36*
X72047Y63710D02*
X71803D01*
X71150Y63580D01*
X70597Y63210D01*
X69978Y62591D01*
X69669Y62719D01*
X68898Y62821D01*
X68127Y62719D01*
X67409Y62422D01*
X66792Y61949D01*
X66318Y61332D01*
X66021Y60613D01*
X65919Y59842D01*
X66021Y59072D01*
X66318Y58353D01*
X66792Y57737D01*
X67409Y57263D01*
X67538Y57209D01*
X67586Y57111D01*
X67622Y56323D01*
X67257Y56043D01*
X66784Y55426D01*
X66486Y54708D01*
X66385Y53937D01*
X66486Y53166D01*
X66784Y52448D01*
X67257Y51831D01*
X67874Y51358D01*
X68228Y51211D01*
X68329Y50701D01*
X68424Y50560D01*
X68147Y49785D01*
X68061Y49700D01*
X67409Y49430D01*
X66792Y48956D01*
X66318Y48340D01*
X66021Y47621D01*
X65919Y46850D01*
X66021Y46080D01*
X66318Y45361D01*
X66792Y44745D01*
X67409Y44271D01*
X68127Y43974D01*
X68898Y43872D01*
X69669Y43974D01*
X70387Y44271D01*
X71004Y44745D01*
X71260Y45078D01*
X72047Y44811D01*
Y38976D01*
X68718D01*
Y39287D01*
X68588Y39940D01*
X68264Y40425D01*
X68333Y40945D01*
X68231Y41716D01*
X67934Y42434D01*
X67460Y43051D01*
X66843Y43524D01*
X66125Y43822D01*
X65354Y43923D01*
X64583Y43822D01*
X63865Y43524D01*
X63248Y43051D01*
X62775Y42434D01*
X62478Y41716D01*
X62376Y40945D01*
X62478Y40174D01*
X62647Y39764D01*
X62226Y38976D01*
X44488D01*
Y43236D01*
X45276Y43504D01*
X45532Y43170D01*
X46149Y42696D01*
X46867Y42399D01*
X47638Y42297D01*
X48409Y42399D01*
X49127Y42696D01*
X49744Y43170D01*
X50217Y43786D01*
X50515Y44505D01*
X50616Y45276D01*
X50515Y46046D01*
X50217Y46765D01*
X49744Y47381D01*
X49347Y47686D01*
X49245Y48411D01*
X49294Y48638D01*
X49350Y48682D01*
X49823Y49298D01*
X50121Y50017D01*
X50222Y50787D01*
X50121Y51558D01*
X49823Y52276D01*
X49350Y52893D01*
X49273Y52953D01*
Y53606D01*
X49392Y53854D01*
X49823Y54416D01*
X50121Y55135D01*
X50222Y55905D01*
X50121Y56676D01*
X49823Y57395D01*
X49350Y58011D01*
X48733Y58485D01*
X48015Y58782D01*
X47244Y58884D01*
X46473Y58782D01*
X45755Y58485D01*
X45276Y58117D01*
X44779Y58258D01*
X44488Y58458D01*
Y67323D01*
X47524D01*
Y67319D01*
X47589D01*
Y66847D01*
X47719Y66194D01*
X48089Y65640D01*
X48269Y65460D01*
X48203Y64961D01*
X48304Y64190D01*
X48602Y63472D01*
X49075Y62855D01*
X49692Y62381D01*
X50410Y62084D01*
X51181Y61982D01*
X51952Y62084D01*
X52670Y62381D01*
X53287Y62855D01*
X53760Y63472D01*
X53831Y63643D01*
X54134D01*
X54787Y63773D01*
X55340Y64143D01*
X56407Y65210D01*
X56777Y65763D01*
X56907Y66416D01*
Y67319D01*
X70752D01*
Y67323D01*
X72047D01*
Y63710D01*
D02*
G37*
G36*
X115705Y60895D02*
Y57963D01*
X115835Y57310D01*
X116205Y56756D01*
X118262Y54699D01*
X118704Y54404D01*
X118855Y54179D01*
X118992Y53652D01*
X118777Y53133D01*
X118675Y52362D01*
X118741Y51862D01*
X116205Y49326D01*
X115835Y48773D01*
X115705Y48120D01*
Y47643D01*
X110630D01*
Y47446D01*
X110404D01*
Y43712D01*
X109419D01*
Y47446D01*
X109193D01*
Y47643D01*
X109117D01*
Y49124D01*
X109757Y49389D01*
X110374Y49863D01*
X110847Y50479D01*
X111144Y51198D01*
X111246Y51968D01*
X111144Y52739D01*
X110847Y53458D01*
X110374Y54074D01*
X109757Y54548D01*
X109523Y54645D01*
X109375Y55388D01*
X115123Y61136D01*
X115705Y60895D01*
D02*
G37*
G36*
X74688Y40012D02*
X75058Y39459D01*
X77822Y36695D01*
Y31299D01*
X76083D01*
Y28740D01*
Y26181D01*
X77822D01*
Y18110D01*
X77849Y17975D01*
X77268Y17664D01*
X69530Y25402D01*
X69771Y25984D01*
X72047D01*
Y31496D01*
X70787D01*
Y35035D01*
Y37772D01*
X72047D01*
X72508Y37864D01*
X72899Y38125D01*
X73160Y38515D01*
X73251Y38976D01*
Y40332D01*
X73341Y40547D01*
X74581D01*
X74688Y40012D01*
D02*
G37*
G36*
X155905Y26772D02*
X181064D01*
Y-5867D01*
X154280D01*
X154130Y-2262D01*
X154561Y-1222D01*
X154721Y0D01*
X154561Y1222D01*
X154089Y2361D01*
X153339Y3339D01*
X152361Y4089D01*
X152208Y4152D01*
Y20472D01*
X156693D01*
Y25984D01*
X151668D01*
X151584Y26142D01*
X151963Y26772D01*
X155905D01*
Y26772D01*
D02*
G37*
%LPC*%
G36*
X139449Y93862D02*
X133957D01*
Y90370D01*
X139449D01*
Y93862D01*
D02*
G37*
G36*
X132973D02*
X127480D01*
Y90370D01*
X132973D01*
Y93862D01*
D02*
G37*
G36*
X149358Y96854D02*
X145866D01*
Y89862D01*
X149358D01*
Y96854D01*
D02*
G37*
G36*
X144882D02*
X141390D01*
Y89862D01*
X144882D01*
Y96854D01*
D02*
G37*
G36*
X139449Y89386D02*
X133957D01*
Y85894D01*
X139449D01*
Y89386D01*
D02*
G37*
G36*
X132973D02*
X127480D01*
Y85894D01*
X132973D01*
Y89386D01*
D02*
G37*
G36*
X149358Y88878D02*
X145866D01*
Y81886D01*
X149358D01*
Y88878D01*
D02*
G37*
G36*
X144882D02*
X141390D01*
Y81886D01*
X144882D01*
Y88878D01*
D02*
G37*
G36*
X149114Y66535D02*
X142126D01*
Y65059D01*
X149114D01*
Y66535D01*
D02*
G37*
G36*
X197Y66339D02*
X-1870D01*
Y64272D01*
X197D01*
Y66339D01*
D02*
G37*
G36*
X-2854D02*
X-4921D01*
Y64272D01*
X-2854D01*
Y66339D01*
D02*
G37*
G36*
X129724Y65945D02*
X127657D01*
Y63878D01*
X129724D01*
Y65945D01*
D02*
G37*
G36*
X126673D02*
X124606D01*
Y63878D01*
X126673D01*
Y65945D01*
D02*
G37*
G36*
X197Y63287D02*
X-1870D01*
Y61221D01*
X197D01*
Y63287D01*
D02*
G37*
G36*
X-2854D02*
X-4921D01*
Y61221D01*
X-2854D01*
Y63287D01*
D02*
G37*
G36*
X197Y59252D02*
X-1870D01*
Y57185D01*
X197D01*
Y59252D01*
D02*
G37*
G36*
X-2854D02*
X-4921D01*
Y57185D01*
X-2854D01*
Y59252D01*
D02*
G37*
G36*
X197Y56201D02*
X-1870D01*
Y54134D01*
X197D01*
Y56201D01*
D02*
G37*
G36*
X-2854D02*
X-4921D01*
Y54134D01*
X-2854D01*
Y56201D01*
D02*
G37*
G36*
X129331Y36909D02*
X127264D01*
Y34843D01*
X129331D01*
Y36909D01*
D02*
G37*
G36*
X126279D02*
X124213D01*
Y34843D01*
X126279D01*
Y36909D01*
D02*
G37*
G36*
X135630Y32087D02*
X133563D01*
Y30020D01*
X135630D01*
Y32087D01*
D02*
G37*
G36*
X132579D02*
X130512D01*
Y30020D01*
X132579D01*
Y32087D01*
D02*
G37*
G36*
X142154Y30217D02*
X139862D01*
Y27924D01*
X142154D01*
Y30217D01*
D02*
G37*
G36*
X138878D02*
X136586D01*
Y27924D01*
X138878D01*
Y30217D01*
D02*
G37*
G36*
X135630Y29035D02*
X133563D01*
Y26969D01*
X135630D01*
Y29035D01*
D02*
G37*
G36*
X17520Y100197D02*
X15453D01*
Y98130D01*
X17520D01*
Y100197D01*
D02*
G37*
G36*
X43504Y85236D02*
X41437D01*
Y83169D01*
X43504D01*
Y85236D01*
D02*
G37*
G36*
X40453D02*
X38386D01*
Y83169D01*
X40453D01*
Y85236D01*
D02*
G37*
G36*
X43504Y82185D02*
X40945D01*
X38386D01*
Y80748D01*
X38386Y80118D01*
X38386Y79488D01*
Y78051D01*
X40945D01*
X43504D01*
Y79488D01*
X43504Y80118D01*
X43504Y80748D01*
Y82185D01*
D02*
G37*
G36*
X35236Y79823D02*
X33169D01*
Y77756D01*
X35236D01*
Y79823D01*
D02*
G37*
G36*
X32185D02*
X30118D01*
Y77756D01*
X32185D01*
Y79823D01*
D02*
G37*
G36*
X43504Y77067D02*
X41437D01*
Y75000D01*
X43504D01*
Y77067D01*
D02*
G37*
G36*
X40453D02*
X38386D01*
Y75000D01*
X40453D01*
Y77067D01*
D02*
G37*
G36*
X97185Y68364D02*
X94193D01*
Y65372D01*
X97185D01*
Y68364D01*
D02*
G37*
G36*
Y64388D02*
X94193D01*
Y61396D01*
X97185D01*
Y64388D01*
D02*
G37*
G36*
X82579Y72638D02*
X80512D01*
Y70571D01*
X82579D01*
Y72638D01*
D02*
G37*
G36*
Y69587D02*
X80512D01*
Y67520D01*
X82579D01*
Y69587D01*
D02*
G37*
G36*
X75098Y31299D02*
X73032D01*
Y29232D01*
X75098D01*
Y31299D01*
D02*
G37*
G36*
Y28248D02*
X73032D01*
Y26181D01*
X75098D01*
Y28248D01*
D02*
G37*
G36*
X162795Y25787D02*
X160728D01*
Y23720D01*
X162795D01*
Y25787D01*
D02*
G37*
G36*
X159744D02*
X157677D01*
Y23720D01*
X159744D01*
Y25787D01*
D02*
G37*
G36*
X162795Y22736D02*
X160728D01*
Y20669D01*
X162795D01*
Y22736D01*
D02*
G37*
G36*
X159744D02*
X157677D01*
Y20669D01*
X159744D01*
Y22736D01*
D02*
G37*
G36*
X160492Y4458D02*
Y492D01*
X164458D01*
X164369Y1171D01*
X163917Y2262D01*
X163198Y3198D01*
X162261Y3917D01*
X161171Y4369D01*
X160492Y4458D01*
D02*
G37*
G36*
X159508D02*
X158829Y4369D01*
X157738Y3917D01*
X156802Y3198D01*
X156083Y2262D01*
X155631Y1171D01*
X155542Y492D01*
X159508D01*
Y4458D01*
D02*
G37*
G36*
X164458Y-492D02*
X160492D01*
Y-4458D01*
X161171Y-4369D01*
X162261Y-3917D01*
X163198Y-3198D01*
X163917Y-2262D01*
X164369Y-1171D01*
X164458Y-492D01*
D02*
G37*
G36*
X159508D02*
X155542D01*
X155631Y-1171D01*
X156083Y-2262D01*
X156802Y-3198D01*
X157738Y-3917D01*
X158829Y-4369D01*
X159508Y-4458D01*
Y-492D01*
D02*
G37*
%LPD*%
D11*
X27165Y12598D02*
Y14961D01*
X28740Y12598D02*
Y14961D01*
X28740D02*
X28740D01*
X27953Y15748D02*
X28740Y14961D01*
X27165D02*
X27953Y15748D01*
X26378D02*
X27165Y14961D01*
X25591Y15748D02*
X26378D01*
X25591Y12598D02*
Y15748D01*
X20866Y12598D02*
Y17323D01*
X24016Y12598D02*
Y14961D01*
X23228Y15748D02*
X24016Y14961D01*
X21654Y15748D02*
X23228D01*
X20866Y14961D02*
X21654Y15748D01*
X16142Y11811D02*
X19291D01*
X11417Y15748D02*
X13780D01*
X14567Y14961D01*
Y13386D02*
Y14961D01*
X13780Y12598D02*
X14567Y13386D01*
X11417Y12598D02*
X13780D01*
X11417D02*
Y17323D01*
X7480Y12598D02*
X9843D01*
X6693Y13386D02*
X7480Y12598D01*
X6693Y13386D02*
Y14961D01*
X7480Y15748D01*
X9843D01*
X1969Y16535D02*
X2756Y17323D01*
X4331D01*
X5118Y16535D01*
Y15748D02*
Y16535D01*
X4331Y14961D02*
X5118Y15748D01*
X4331Y14961D02*
Y14961D01*
X3543D02*
X4331D01*
Y14961D02*
Y14961D01*
Y14961D02*
X5118Y14173D01*
Y13386D02*
Y14173D01*
X4331Y12598D02*
X5118Y13386D01*
X2756Y12598D02*
X4331D01*
X1969Y13386D02*
X2756Y12598D01*
X-1181Y13780D02*
Y16142D01*
X-2756Y13386D02*
X-1969Y12598D01*
X-2756Y13386D02*
Y16535D01*
X-1969Y17323D01*
X-394D01*
X394Y16535D01*
Y13386D02*
Y16535D01*
X-394Y12598D02*
X394Y13386D01*
X-1969Y12598D02*
X-394D01*
X-5906D02*
Y17323D01*
X-6693Y16535D02*
X-5906Y17323D01*
X-6693Y12598D02*
X-5118D01*
X117717Y81496D02*
Y86221D01*
D12*
X17200Y16154D02*
X18200Y22354D01*
X17200Y16154D02*
X17200Y23154D01*
X9000Y20154D02*
X9600Y22754D01*
X9000Y20154D02*
Y23354D01*
X6800Y23354D02*
X9000Y23354D01*
X5400Y26354D02*
X6800Y23354D01*
X4000Y20154D02*
X5400Y26354D01*
X2400D02*
X4000Y20154D01*
X1200Y23154D02*
X2400Y26354D01*
X600Y23154D02*
X1200Y23154D01*
X13000Y20154D02*
X16200D01*
X12200Y23154D02*
X13000Y20154D01*
X10400Y23154D02*
X12200Y23154D01*
X9600Y22754D02*
X10400Y23154D01*
X16200Y20154D02*
X17200Y23154D01*
X16400Y26354D02*
X17200Y23154D01*
X13000Y26354D02*
X16400D01*
X12200Y23154D02*
X13000Y26354D01*
D14*
X27165Y37402D02*
Y41732D01*
X27165Y37402D02*
X27165Y37402D01*
X32283Y37795D02*
Y41732D01*
X35433Y13386D02*
Y43307D01*
X28346Y9843D02*
X30709Y12205D01*
X34252D01*
X37795Y10236D02*
X40157Y12598D01*
X30315Y7874D02*
X32677Y10236D01*
X37795D01*
X34252Y12205D02*
X35433Y13386D01*
X40157Y12598D02*
Y42205D01*
X34252Y8268D02*
X40157D01*
X47327Y15437D01*
X31890Y5906D02*
X34252Y8268D01*
X47327Y15437D02*
Y35035D01*
X30000Y0D02*
X36063Y6063D01*
X41102D01*
X49295Y14256D02*
Y35035D01*
X41102Y6063D02*
X49295Y14256D01*
X12598Y6693D02*
X15748Y9843D01*
X28346D01*
X10000Y0D02*
X17874Y7874D01*
X30315D01*
X20000Y0D02*
X25905Y5906D01*
X31890D01*
X20000Y0D02*
Y0D01*
X40000Y0D02*
Y1417D01*
X51264Y12681D02*
Y35035D01*
X40000Y1417D02*
X51264Y12681D01*
X59138Y99138D02*
X65118Y105118D01*
X70866D01*
X80000Y114252D01*
X7480Y94488D02*
X9843Y92126D01*
X0Y120000D02*
X7480Y112520D01*
Y94488D02*
Y112520D01*
X9843Y92126D02*
X14961D01*
X2362Y6693D02*
X12598D01*
X70000Y0D02*
Y9134D01*
X57169Y21965D02*
Y35035D01*
Y21965D02*
X70000Y9134D01*
X79245Y755D02*
X80000Y0D01*
X59138Y24327D02*
X79245Y4220D01*
X59138Y24327D02*
Y35035D01*
X79245Y755D02*
Y4220D01*
X88796Y1204D02*
X90000Y0D01*
X61106Y26295D02*
Y35035D01*
Y26295D02*
X86198Y1204D01*
X88796D01*
X60000Y0D02*
Y4961D01*
X55201Y9760D02*
Y35035D01*
Y9760D02*
X60000Y4961D01*
X50000Y0D02*
Y6299D01*
X53232Y9532D01*
Y35035D01*
X22441Y68504D02*
Y87402D01*
X12598Y94095D02*
X15748D01*
X22441Y87402D01*
X59138Y71256D02*
Y99138D01*
X80000Y114252D02*
Y120000D01*
X57169Y71256D02*
Y103626D01*
X69237Y119237D02*
X70000Y120000D01*
X69237Y115694D02*
Y119237D01*
X57169Y103626D02*
X69237Y115694D01*
X53232Y71256D02*
Y107957D01*
X60630Y115354D02*
Y119370D01*
X53232Y107957D02*
X60630Y115354D01*
X0Y0D02*
X69Y69D01*
Y4400D01*
X2362Y6693D01*
X10000Y96693D02*
Y120000D01*
Y96693D02*
X12598Y94095D01*
X92520Y81890D02*
X92913Y81496D01*
Y76772D02*
Y81496D01*
X122345Y79825D02*
Y81400D01*
X114911Y72392D02*
X122345Y79825D01*
Y81400D02*
X122835Y81890D01*
X123921Y58268D02*
X127165D01*
X122346Y59842D02*
X123921Y58268D01*
X121653Y59842D02*
X122346D01*
X117411Y48120D02*
X121653Y52362D01*
X117411Y43712D02*
Y48120D01*
X93782Y56299D02*
X104724D01*
X93701Y56380D02*
X93782Y56299D01*
X104724D02*
X109843Y61417D01*
X95276Y38000D02*
Y38189D01*
Y38000D02*
X97449Y35827D01*
X99705D01*
X92126Y41732D02*
X100394Y50000D01*
X92126Y32283D02*
X98501Y25909D01*
X92126Y32283D02*
Y41732D01*
X99213Y73426D02*
Y81299D01*
Y73426D02*
X100767Y71872D01*
X106299Y75197D02*
Y80315D01*
X89370Y44488D02*
Y52756D01*
X93701Y48425D02*
Y56380D01*
X100394Y50000D02*
X104911D01*
X69177Y71653D02*
X72047D01*
X77953Y77559D02*
Y98819D01*
X72047Y71653D02*
X77953Y77559D01*
X40043Y52161D02*
X43500D01*
X47244Y55905D01*
X119468D02*
X123622D01*
X125295Y54232D02*
X126083D01*
X127165Y53150D01*
X123622Y55905D02*
X125295Y54232D01*
X117411Y57963D02*
Y67312D01*
Y57963D02*
X119468Y55905D01*
X110630Y15354D02*
X114173Y11811D01*
X84252Y21654D02*
X90551Y15354D01*
X110630D01*
X84252Y21654D02*
Y44094D01*
X88976Y12992D02*
X110236D01*
X113779Y9449D01*
X81890Y20079D02*
X88976Y12992D01*
X81890Y20079D02*
Y43307D01*
X79528Y18110D02*
Y37402D01*
X87402Y10236D02*
X109764D01*
X79528Y18110D02*
X87402Y10236D01*
X82091Y46256D02*
X84252Y44094D01*
X80910Y44287D02*
X81890Y43307D01*
X76264Y40665D02*
X79528Y37402D01*
X109764Y10236D02*
X120000Y0D01*
X101732Y8268D02*
X110000Y0D01*
X65043Y27476D02*
X84252Y8268D01*
X101732D01*
X83858Y5906D02*
X94095D01*
X100000Y0D01*
X63075Y26689D02*
X83858Y5906D01*
X104335Y71872D02*
X104911Y71295D01*
X100767Y71872D02*
X104335D01*
X104911Y67312D02*
Y71295D01*
X89701Y59780D02*
Y90095D01*
X91605Y91998D02*
X107353D01*
X89701Y90095D02*
X91605Y91998D01*
X87795Y60236D02*
Y90945D01*
X91303Y97146D02*
X92976Y98819D01*
X85827Y60612D02*
Y91732D01*
X87795Y90945D02*
X90945Y94095D01*
X85827Y91732D02*
X91241Y97146D01*
X91303D01*
X92976Y98819D02*
X93701D01*
X90945Y94095D02*
X104331D01*
X85250Y60035D02*
X85827Y60612D01*
X85626Y58067D02*
X87795Y60236D01*
X76264Y60035D02*
X85250D01*
X86020Y56098D02*
X89701Y59780D01*
X76264Y58067D02*
X85626D01*
X76264Y56098D02*
X86020D01*
X115945Y26378D02*
X119291D01*
X115748Y26181D02*
X115945Y26378D01*
X119291D02*
X122047Y29134D01*
X110162Y20965D02*
X120177D01*
X122047Y22835D01*
X109744Y21266D02*
Y25909D01*
X109843Y20965D02*
X110162D01*
X107062D02*
X109843D01*
X106299D02*
X107062D01*
X102903D02*
X106299D01*
Y21225D02*
Y25909D01*
X125197Y9449D02*
X130000Y4646D01*
X113779Y9449D02*
X125197D01*
X130000Y0D02*
Y4646D01*
X114173Y11811D02*
X128189D01*
X132126Y7874D02*
X132126D01*
X128189Y11811D02*
X132126Y7874D01*
X132126D02*
X140000Y0D01*
X107411Y43712D02*
Y50345D01*
X102411Y41044D02*
Y43712D01*
X114911Y33711D02*
Y43712D01*
Y33711D02*
X115748Y32874D01*
X68890Y76866D02*
X72740D01*
X67012Y74988D02*
X68890Y76866D01*
X67012Y71256D02*
Y74988D01*
X51189Y116507D02*
Y118811D01*
X51264Y71256D02*
Y116432D01*
X50000Y120000D02*
X51189Y118811D01*
Y116507D02*
X51264Y116432D01*
X106299Y35509D02*
X106551Y35761D01*
X107411Y40089D02*
Y43712D01*
X106551Y35761D02*
Y39228D01*
X107411Y40089D01*
X100295Y20965D02*
X102903D01*
X103150Y21211D02*
Y25909D01*
X102903Y20965D02*
X103150Y21211D01*
X98501Y25909D02*
X99705D01*
Y21555D02*
X100295Y20965D01*
X99705Y21555D02*
Y25909D01*
X110630Y36395D02*
Y38189D01*
X109744Y35509D02*
X110630Y36395D01*
Y38189D02*
X112411Y39970D01*
Y43712D01*
X102411Y38263D02*
X103150Y37524D01*
X102411Y38263D02*
Y41044D01*
X103150Y35509D02*
Y37524D01*
X99911Y36033D02*
Y43712D01*
X99705Y35827D02*
X99911Y36033D01*
X127768Y112414D02*
X132414D01*
X107353Y91998D02*
X127768Y112414D01*
X132414D02*
X140000Y120000D01*
Y120000D01*
X130000Y119764D02*
Y120000D01*
X104331Y94095D02*
X130000Y119764D01*
X28427Y93701D02*
X30000Y95274D01*
Y120000D01*
X21260Y97638D02*
X24490D01*
X28427Y93701D01*
X14961Y97638D02*
Y102756D01*
X14961Y92126D02*
X20472Y86614D01*
X14961Y97638D02*
X15354Y98032D01*
X20472Y66929D02*
Y86614D01*
X26378Y80315D02*
Y85827D01*
X32677Y75197D02*
Y80315D01*
X34646Y67205D02*
Y68642D01*
X26378Y70866D02*
Y80315D01*
X29528Y66535D02*
X31609D01*
X36140Y62004D01*
X40043D01*
X28346Y62598D02*
X33071D01*
X22441Y68504D02*
X28346Y62598D01*
X33071D02*
X35634Y60035D01*
X33071Y60236D02*
X35240Y58067D01*
X27165Y60236D02*
X33071D01*
X20472Y66929D02*
X27165Y60236D01*
X11980Y65579D02*
X19291Y58268D01*
X31890D02*
X34059Y56098D01*
X19291Y58268D02*
X31890D01*
X11980Y65579D02*
Y68690D01*
X10591Y70079D02*
X11980Y68690D01*
X68980Y71256D02*
Y71457D01*
X69177Y71653D01*
X104911Y50000D02*
Y53337D01*
X114787Y63213D02*
Y67188D01*
X104911Y53337D02*
X114787Y63213D01*
X76264Y54130D02*
X87996D01*
X89370Y52756D01*
X76264Y52161D02*
X82878D01*
X84646Y50394D01*
X46650Y50193D02*
X47244Y50787D01*
X40043Y50193D02*
X46650D01*
X34646Y67205D02*
X37878Y63972D01*
X40043D01*
X69665Y46850D02*
X71039Y48224D01*
X76264D01*
X68898Y46850D02*
X69665D01*
X69906Y51354D02*
X71067Y50193D01*
X69363Y53937D02*
X69906Y53395D01*
Y51354D02*
Y53395D01*
X67012Y35035D02*
Y39287D01*
X65354Y40945D02*
X67012Y39287D01*
X74016Y104016D02*
X90000Y120000D01*
X74016Y92601D02*
Y104016D01*
X122047Y47638D02*
X122441Y48031D01*
X127165D01*
X108268Y51201D02*
Y51968D01*
X107411Y50345D02*
X108268Y51201D01*
X114787Y67188D02*
X114911Y67312D01*
X109843Y61417D02*
Y67243D01*
X93701Y64880D02*
X94012Y65191D01*
X51570Y65349D02*
X54134D01*
X51181Y64961D02*
X51570Y65349D01*
X54134D02*
X55201Y66416D01*
Y71256D01*
X71803Y62004D02*
X76264D01*
X68898Y59842D02*
X69642D01*
X71803Y62004D01*
X49295Y66847D02*
Y71256D01*
Y66847D02*
X51181Y64961D01*
X27165Y41732D02*
X32283D01*
X40945Y77559D02*
Y82677D01*
X46063Y45276D02*
X47638D01*
X40043Y46256D02*
X45083D01*
X46063Y45276D01*
X104911Y43712D02*
Y50000D01*
X71067Y50193D02*
X76264D01*
X102411Y43712D02*
X102657Y43466D01*
Y41044D02*
Y43466D01*
X114911Y67312D02*
Y72392D01*
X122047Y42520D02*
X126772D01*
X109843Y67243D02*
X109911Y67312D01*
X106299Y85433D02*
X109911Y81821D01*
Y67312D02*
Y81821D01*
X112411Y67312D02*
Y75010D01*
X112598Y75197D01*
Y80315D02*
Y85433D01*
Y75197D02*
Y80315D01*
X92520Y88189D02*
X99016D01*
X99213Y87992D01*
X72740Y76866D02*
X72835Y76772D01*
X73935Y88976D02*
X74803D01*
X63075Y71256D02*
Y78117D01*
X73935Y88976D01*
X65043Y71256D02*
Y75673D01*
X71260Y81890D01*
X61106Y79691D02*
X74016Y92601D01*
X61106Y71256D02*
Y79691D01*
X60000Y120000D02*
X60630Y119370D01*
X35634Y60035D02*
X40043D01*
X35240Y58067D02*
X40043D01*
X76264Y46256D02*
X82091D01*
X76264Y44287D02*
X80910D01*
X76264Y40665D02*
Y42319D01*
X65043Y27476D02*
Y35035D01*
X63075Y26689D02*
Y35035D01*
X40043Y42319D02*
X40157Y42205D01*
X36413Y44287D02*
X40043D01*
X35433Y43307D02*
X36413Y44287D01*
X22240Y48224D02*
X40043D01*
X22047Y48031D02*
X22240Y48224D01*
X-2362Y70079D02*
X10591D01*
X34059Y56098D02*
X40043D01*
X30315Y53937D02*
X30508Y54130D01*
X40043D01*
X-2362Y50394D02*
X10591D01*
X14134Y53937D02*
X24016D01*
X10591Y50394D02*
X14134Y53937D01*
D15*
X-9843Y-7874D02*
Y129921D01*
X183071D01*
X183071Y-7874D01*
X-9843D02*
X183071D01*
D16*
X148070Y26909D02*
X148886Y26093D01*
Y23949D02*
X150000Y22835D01*
X147370Y26909D02*
X148070D01*
X148886Y23949D02*
Y26093D01*
X150000Y23228D02*
X153937D01*
X150000Y0D02*
Y23228D01*
X171654Y40748D02*
Y75787D01*
X148425Y40748D02*
X171653D01*
X148425Y75787D02*
X171654D01*
X171653Y40748D02*
X171654Y40748D01*
X132480Y75787D02*
X148425D01*
X131890Y76378D02*
X132480Y75787D01*
X171654D02*
Y88090D01*
X170374Y89370D02*
X171654Y88090D01*
D34*
X141339Y51968D02*
X148425D01*
X138189Y44094D02*
Y48819D01*
X141339Y51968D01*
X133465Y48031D02*
Y53150D01*
X149687Y34646D02*
X155199Y29134D01*
X138583Y34646D02*
X149687D01*
X135827Y37402D02*
X138583Y34646D01*
X133071Y37402D02*
X135827D01*
X133465Y53150D02*
X136614D01*
X138583Y55118D02*
X148425D01*
X136614Y53150D02*
X138583Y55118D01*
X148425Y51968D02*
X148425Y51968D01*
X133071Y42520D02*
X133465Y42913D01*
X137008D01*
X138189Y44094D01*
X133071Y37402D02*
Y42520D01*
X133465Y58268D02*
Y63386D01*
Y58268D02*
X148425D01*
D43*
X149606Y75787D02*
D03*
Y40748D02*
D03*
D44*
Y51968D02*
D03*
Y55118D02*
D03*
Y58268D02*
D03*
Y61417D02*
D03*
Y64567D02*
D03*
D45*
X172835Y75787D02*
D03*
X172835Y40748D02*
D03*
D46*
X115748Y26181D02*
D03*
Y32874D02*
D03*
X99213Y87992D02*
D03*
Y81299D02*
D03*
D47*
X83071Y70079D02*
D03*
Y63779D02*
D03*
X133071Y29528D02*
D03*
Y23228D02*
D03*
X122047Y22835D02*
D03*
Y29134D02*
D03*
X92520Y81890D02*
D03*
Y88189D02*
D03*
X32283Y41732D02*
D03*
Y48031D02*
D03*
X27165Y41732D02*
D03*
Y48031D02*
D03*
X22047Y41732D02*
D03*
Y48031D02*
D03*
X117717Y75197D02*
D03*
Y81496D02*
D03*
X-2362Y56693D02*
D03*
Y50394D02*
D03*
Y63779D02*
D03*
Y70079D02*
D03*
D48*
X93701Y64880D02*
D03*
Y56380D02*
D03*
D49*
X99911Y67312D02*
D03*
X102411D02*
D03*
X104911D02*
D03*
X107411D02*
D03*
X109911D02*
D03*
X112411D02*
D03*
X114911D02*
D03*
X117411D02*
D03*
Y43712D02*
D03*
X114911D02*
D03*
X112411D02*
D03*
X109911D02*
D03*
X107411D02*
D03*
X104911D02*
D03*
X102411D02*
D03*
X99911D02*
D03*
D50*
X127165Y63386D02*
D03*
X133465D02*
D03*
X127165Y48031D02*
D03*
X133465D02*
D03*
X106299Y80315D02*
D03*
X112598D02*
D03*
Y85433D02*
D03*
X106299D02*
D03*
X127165Y58268D02*
D03*
X133465D02*
D03*
X127165Y53150D02*
D03*
X133465D02*
D03*
X112598Y75197D02*
D03*
X106299D02*
D03*
X21260Y97638D02*
D03*
X14961D02*
D03*
X133071Y42520D02*
D03*
X126772D02*
D03*
Y37402D02*
D03*
X133071D02*
D03*
X24016Y53937D02*
D03*
X30315D02*
D03*
X32677Y85827D02*
D03*
X26378D02*
D03*
X153937Y23228D02*
D03*
X160236D02*
D03*
X26378Y80315D02*
D03*
X32677D02*
D03*
X47244Y82677D02*
D03*
X40945D02*
D03*
X47244Y77559D02*
D03*
X40945D02*
D03*
X69291Y28740D02*
D03*
X75591D02*
D03*
D51*
X109744Y25909D02*
D03*
Y35509D02*
D03*
X99705Y25909D02*
D03*
Y35509D02*
D03*
D52*
X106299Y25909D02*
D03*
Y35509D02*
D03*
X103150Y25909D02*
D03*
Y35509D02*
D03*
D53*
X145374Y89370D02*
D03*
X170374D02*
D03*
D54*
X147370Y26909D02*
D03*
D55*
X139370Y23209D02*
D03*
Y30709D02*
D03*
D56*
X40043Y63972D02*
D03*
Y62004D02*
D03*
Y60035D02*
D03*
Y58067D02*
D03*
Y56098D02*
D03*
Y54130D02*
D03*
Y52161D02*
D03*
Y50193D02*
D03*
Y48224D02*
D03*
Y46256D02*
D03*
Y44287D02*
D03*
Y42319D02*
D03*
X76264D02*
D03*
Y44287D02*
D03*
Y46256D02*
D03*
Y48224D02*
D03*
Y50193D02*
D03*
Y52161D02*
D03*
Y54130D02*
D03*
Y56098D02*
D03*
Y58067D02*
D03*
Y60035D02*
D03*
Y62004D02*
D03*
Y63972D02*
D03*
D57*
X68980Y35035D02*
D03*
X67012D02*
D03*
X65043D02*
D03*
X63075D02*
D03*
X61106D02*
D03*
X59138D02*
D03*
X57169D02*
D03*
X55201D02*
D03*
X53232D02*
D03*
X51264D02*
D03*
X49295D02*
D03*
X47327D02*
D03*
X68980Y71256D02*
D03*
X67012D02*
D03*
X65043D02*
D03*
X63075D02*
D03*
X61106D02*
D03*
X59138D02*
D03*
X57169D02*
D03*
X55201D02*
D03*
X53232D02*
D03*
X51264D02*
D03*
X49295D02*
D03*
X47327D02*
D03*
D58*
X133465Y89878D02*
D03*
Y76378D02*
D03*
D59*
X68980Y40075D02*
X70472D01*
Y41339D01*
X129921Y23622D02*
X139370D01*
X37321Y89451D02*
Y93701D01*
X127559Y25984D02*
X129921Y23622D01*
X37402Y89370D02*
X47244D01*
X33465D02*
X37402D01*
X37321Y89451D02*
X37402Y89370D01*
X32677Y85827D02*
Y88583D01*
X33465Y89370D01*
X22047Y36220D02*
Y41732D01*
X22047Y41732D01*
X47244Y82677D02*
Y89370D01*
X68980Y29051D02*
Y35035D01*
Y29051D02*
X69291Y28740D01*
X47244Y77559D02*
X47327Y77476D01*
Y71256D02*
Y77476D01*
X76264Y63972D02*
X82878D01*
X83071Y63779D01*
X47327Y67405D02*
Y71256D01*
X45669Y65748D02*
X47327Y67405D01*
X69685Y64173D02*
X69886Y63972D01*
X76264D01*
X68980Y35035D02*
Y40075D01*
X47244Y77559D02*
Y82677D01*
D60*
X0Y120000D02*
D03*
Y0D02*
D03*
D61*
X10000Y120000D02*
D03*
X20000D02*
D03*
X30000D02*
D03*
X40000D02*
D03*
X50000D02*
D03*
X60000D02*
D03*
X70000D02*
D03*
X80000D02*
D03*
X90000D02*
D03*
X100000D02*
D03*
X110000D02*
D03*
X120000D02*
D03*
X130000D02*
D03*
X140000D02*
D03*
X150000D02*
D03*
X160000D02*
D03*
Y0D02*
D03*
X150000D02*
D03*
X140000D02*
D03*
X130000D02*
D03*
X120000D02*
D03*
X110000D02*
D03*
X100000D02*
D03*
X90000D02*
D03*
X80000D02*
D03*
X70000D02*
D03*
X60000D02*
D03*
X50000D02*
D03*
X40000D02*
D03*
X30000D02*
D03*
X20000D02*
D03*
X10000D02*
D03*
D62*
X161024Y66929D02*
D03*
X161024Y49606D02*
D03*
X29528Y36614D02*
D03*
X62205Y96457D02*
D03*
X65748Y88976D02*
D03*
X47244Y101969D02*
D03*
X36220D02*
D03*
X25197Y109449D02*
D03*
X92913Y76772D02*
D03*
X127559Y25984D02*
D03*
X168504Y111024D02*
D03*
X145669Y109449D02*
D03*
X135039Y107874D02*
D03*
X153150Y85433D02*
D03*
X122835Y81890D02*
D03*
X121653Y59842D02*
D03*
Y52362D02*
D03*
X102756Y60236D02*
D03*
X95276Y38189D02*
D03*
X135433Y14567D02*
D03*
X92520Y21260D02*
D03*
X89370Y44488D02*
D03*
X93701Y48425D02*
D03*
X85039Y110236D02*
D03*
X77953Y72835D02*
D03*
X47244Y55905D02*
D03*
X74803Y23622D02*
D03*
X135827Y98032D02*
D03*
X104724Y109843D02*
D03*
X-2362Y75984D02*
D03*
X88189Y35433D02*
D03*
X133071Y68504D02*
D03*
X14961Y102756D02*
D03*
X32677Y75197D02*
D03*
X34646Y68642D02*
D03*
X26378Y70866D02*
D03*
X29528Y66535D02*
D03*
X84646Y50394D02*
D03*
X22047Y36220D02*
D03*
X46457Y40157D02*
D03*
X70472Y41339D02*
D03*
X47244Y50787D02*
D03*
Y89370D02*
D03*
X68898Y46850D02*
D03*
X69363Y53937D02*
D03*
X65354Y40945D02*
D03*
X127559Y31890D02*
D03*
X122047Y47638D02*
D03*
X113779Y50394D02*
D03*
X108268Y51968D02*
D03*
X94882Y72047D02*
D03*
X68898Y59842D02*
D03*
X51181Y64961D02*
D03*
X47638Y45276D02*
D03*
X122047Y42520D02*
D03*
X72835Y76772D02*
D03*
X71260Y81890D02*
D03*
X74803Y88976D02*
D03*
D63*
X10236Y77716D02*
D03*
Y42756D02*
D03*
D64*
X36927Y93701D02*
D03*
X28427D02*
D03*
X163699Y30709D02*
D03*
X155199D02*
D03*
D65*
X70079Y98819D02*
D03*
X77953D02*
D03*
X85827D02*
D03*
X93701D02*
D03*
M02*
