G04*
G04 #@! TF.GenerationSoftware,Altium Limited,Altium Designer,20.2.6 (244)*
G04*
G04 Layer_Color=65535*
%FSLAX25Y25*%
%MOIN*%
G70*
G04*
G04 #@! TF.SameCoordinates,05D6BC93-F204-4B59-986D-561AD4BAE22A*
G04*
G04*
G04 #@! TF.FilePolarity,Positive*
G04*
G01*
G75*
%ADD10C,0.00600*%
%ADD11C,0.00787*%
%ADD12C,0.00800*%
%ADD13C,0.00591*%
%ADD14C,0.00984*%
%ADD15C,0.01000*%
%ADD16C,0.01968*%
D10*
X157087Y73425D02*
X165354D01*
X157087Y43110D02*
X165354D01*
X180512D02*
X181693D01*
Y69882D02*
Y73425D01*
X180512D02*
X181693D01*
X184252D01*
Y43110D02*
Y73425D01*
X181693Y43110D02*
X184252D01*
X181693D02*
Y46457D01*
Y62402D02*
Y66142D01*
Y50394D02*
Y54331D01*
D11*
X15748Y34252D02*
X19291D01*
X15748Y86221D02*
X19291D01*
Y34252D02*
Y86221D01*
X1181Y34252D02*
Y86221D01*
X4724D01*
X1181Y34252D02*
X4724D01*
X112598Y36417D02*
X118898D01*
X112598Y37598D02*
X118898D01*
X112598Y22835D02*
Y37598D01*
Y37008D02*
X118898D01*
Y22835D02*
Y37598D01*
X112598Y22835D02*
X118898D01*
X96063Y77756D02*
X102362D01*
X96063Y76575D02*
X102362D01*
Y91339D01*
X96063Y77165D02*
X102362D01*
X96063Y76575D02*
Y91339D01*
X102362D01*
X158268Y9054D02*
X157481Y8267D01*
Y6693D01*
X158268Y5906D01*
X161417D01*
X162204Y6693D01*
Y8267D01*
X161417Y9054D01*
X159843D01*
Y7480D01*
X162204Y10628D02*
X157481D01*
X162204Y13777D01*
X157481D01*
Y15351D02*
X162204D01*
Y17713D01*
X161417Y18500D01*
X158268D01*
X157481Y17713D01*
Y15351D01*
X149213Y5906D02*
Y9054D01*
X147638Y7480D02*
X150787D01*
X146851Y13777D02*
Y10628D01*
X149213D01*
X148425Y12203D01*
Y12990D01*
X149213Y13777D01*
X150787D01*
X151574Y12990D01*
Y11416D01*
X150787Y10628D01*
X146851Y15351D02*
X150000D01*
X151574Y16926D01*
X150000Y18500D01*
X146851D01*
X137796Y5906D02*
X142519D01*
Y8267D01*
X141732Y9054D01*
X140945D01*
X140157Y8267D01*
Y5906D01*
Y8267D01*
X139370Y9054D01*
X138583D01*
X137796Y8267D01*
Y5906D01*
X142519Y10628D02*
Y12203D01*
Y11416D01*
X137796D01*
X138583Y10628D01*
X142519Y16926D02*
X137796D01*
X140157Y14564D01*
Y17713D01*
X127560Y5906D02*
X132283D01*
Y8267D01*
X131495Y9054D01*
X130708D01*
X129921Y8267D01*
Y5906D01*
Y8267D01*
X129134Y9054D01*
X128347D01*
X127560Y8267D01*
Y5906D01*
X132283Y10628D02*
Y12203D01*
Y11416D01*
X127560D01*
X128347Y10628D01*
Y14564D02*
X127560Y15351D01*
Y16926D01*
X128347Y17713D01*
X129134D01*
X129921Y16926D01*
Y16138D01*
Y16926D01*
X130708Y17713D01*
X131495D01*
X132283Y16926D01*
Y15351D01*
X131495Y14564D01*
X117717Y5906D02*
X122440D01*
Y8267D01*
X121653Y9054D01*
X120866D01*
X120079Y8267D01*
Y5906D01*
Y8267D01*
X119292Y9054D01*
X118504D01*
X117717Y8267D01*
Y5906D01*
X122440Y10628D02*
Y12203D01*
Y11416D01*
X117717D01*
X118504Y10628D01*
X122440Y17713D02*
Y14564D01*
X119292Y17713D01*
X118504D01*
X117717Y16926D01*
Y15351D01*
X118504Y14564D01*
X107875Y5906D02*
X112598D01*
Y8267D01*
X111811Y9054D01*
X111023D01*
X110236Y8267D01*
Y5906D01*
Y8267D01*
X109449Y9054D01*
X108662D01*
X107875Y8267D01*
Y5906D01*
X112598Y10628D02*
Y12203D01*
Y11416D01*
X107875D01*
X108662Y10628D01*
X112598Y14564D02*
Y16138D01*
Y15351D01*
X107875D01*
X108662Y14564D01*
X97639Y5906D02*
X102361D01*
Y8267D01*
X101574Y9054D01*
X100787D01*
X100000Y8267D01*
Y5906D01*
Y8267D01*
X99213Y9054D01*
X98426D01*
X97639Y8267D01*
Y5906D01*
X102361Y10628D02*
Y12203D01*
Y11416D01*
X97639D01*
X98426Y10628D01*
Y14564D02*
X97639Y15351D01*
Y16926D01*
X98426Y17713D01*
X101574D01*
X102361Y16926D01*
Y15351D01*
X101574Y14564D01*
X98426D01*
X87796Y5906D02*
X92519D01*
Y8267D01*
X91732Y9054D01*
X90945D01*
X90158Y8267D01*
Y5906D01*
Y8267D01*
X89370Y9054D01*
X88583D01*
X87796Y8267D01*
Y5906D01*
X92519Y13777D02*
Y10628D01*
X89370Y13777D01*
X88583D01*
X87796Y12990D01*
Y11416D01*
X88583Y10628D01*
X77560Y5906D02*
X82283D01*
Y8267D01*
X81495Y9054D01*
X80708D01*
X79921Y8267D01*
Y5906D01*
Y8267D01*
X79134Y9054D01*
X78347D01*
X77560Y8267D01*
Y5906D01*
X82283Y10628D02*
Y12203D01*
Y11416D01*
X77560D01*
X78347Y10628D01*
X67717Y5906D02*
X72440D01*
Y8267D01*
X71653Y9054D01*
X70866D01*
X70079Y8267D01*
Y5906D01*
Y8267D01*
X69292Y9054D01*
X68504D01*
X67717Y8267D01*
Y5906D01*
X68504Y10628D02*
X67717Y11416D01*
Y12990D01*
X68504Y13777D01*
X71653D01*
X72440Y12990D01*
Y11416D01*
X71653Y10628D01*
X68504D01*
X62598Y5906D02*
X59449D01*
X57875Y7480D01*
X59449Y9054D01*
X62598D01*
X60236D01*
Y5906D01*
X57875Y10628D02*
Y13777D01*
X58662D01*
X61810Y10628D01*
X62598D01*
X52361Y5906D02*
X49213D01*
X47638Y7480D01*
X49213Y9054D01*
X52361D01*
X50000D01*
Y5906D01*
X47638Y13777D02*
X48426Y12203D01*
X50000Y10628D01*
X51574D01*
X52361Y11416D01*
Y12990D01*
X51574Y13777D01*
X50787D01*
X50000Y12990D01*
Y10628D01*
X42125Y5906D02*
X38977D01*
X37402Y7480D01*
X38977Y9054D01*
X42125D01*
X39764D01*
Y5906D01*
X37402Y13777D02*
Y10628D01*
X39764D01*
X38977Y12203D01*
Y12990D01*
X39764Y13777D01*
X41338D01*
X42125Y12990D01*
Y11416D01*
X41338Y10628D01*
X32283Y5906D02*
X29134D01*
X27560Y7480D01*
X29134Y9054D01*
X32283D01*
X29921D01*
Y5906D01*
X32283Y12990D02*
X27560D01*
X29921Y10628D01*
Y13777D01*
X22440Y5906D02*
X19292D01*
X17717Y7480D01*
X19292Y9054D01*
X22440D01*
X20079D01*
Y5906D01*
X18504Y10628D02*
X17717Y11416D01*
Y12990D01*
X18504Y13777D01*
X19292D01*
X20079Y12990D01*
Y12203D01*
Y12990D01*
X20866Y13777D01*
X21653D01*
X22440Y12990D01*
Y11416D01*
X21653Y10628D01*
X12204Y5906D02*
X9055D01*
X7481Y7480D01*
X9055Y9054D01*
X12204D01*
X9843D01*
Y5906D01*
X12204Y13777D02*
Y10628D01*
X9055Y13777D01*
X8268D01*
X7481Y12990D01*
Y11416D01*
X8268Y10628D01*
X1968Y5906D02*
X-1181D01*
X-2755Y7480D01*
X-1181Y9054D01*
X1968D01*
X-394D01*
Y5906D01*
X1968Y10628D02*
Y12203D01*
Y11416D01*
X-2755D01*
X-1968Y10628D01*
X157875Y102366D02*
X162598D01*
Y104727D01*
X161811Y105515D01*
X161023D01*
X160236Y104727D01*
Y102366D01*
Y104727D01*
X159449Y105515D01*
X158662D01*
X157875Y104727D01*
Y102366D01*
X162598Y107089D02*
Y108663D01*
Y107876D01*
X157875D01*
X158662Y107089D01*
X157875Y114173D02*
Y111025D01*
X160236D01*
X159449Y112599D01*
Y113386D01*
X160236Y114173D01*
X161811D01*
X162598Y113386D01*
Y111812D01*
X161811Y111025D01*
X152755Y106302D02*
X149607D01*
X148032Y107876D01*
X149607Y109450D01*
X152755D01*
X150394D01*
Y106302D01*
X148819Y111025D02*
X148032Y111812D01*
Y113386D01*
X148819Y114173D01*
X149607D01*
X150394Y113386D01*
X151181Y114173D01*
X151968D01*
X152755Y113386D01*
Y111812D01*
X151968Y111025D01*
X151181D01*
X150394Y111812D01*
X149607Y111025D01*
X148819D01*
X150394Y111812D02*
Y113386D01*
X142519Y103940D02*
X139370D01*
X137796Y105515D01*
X139370Y107089D01*
X142519D01*
X140157D01*
Y103940D01*
X142519Y108663D02*
Y110238D01*
Y109450D01*
X137796D01*
X138583Y108663D01*
X142519Y112599D02*
Y114173D01*
Y113386D01*
X137796D01*
X138583Y112599D01*
X132283Y102366D02*
X129134D01*
X127560Y103940D01*
X129134Y105515D01*
X132283D01*
X129921D01*
Y102366D01*
X132283Y107089D02*
Y108663D01*
Y107876D01*
X127560D01*
X128347Y107089D01*
X132283Y114173D02*
Y111025D01*
X129134Y114173D01*
X128347D01*
X127560Y113386D01*
Y111812D01*
X128347Y111025D01*
X122440Y102366D02*
X119292D01*
X117717Y103940D01*
X119292Y105515D01*
X122440D01*
X120079D01*
Y102366D01*
X122440Y107089D02*
Y108663D01*
Y107876D01*
X117717D01*
X118504Y107089D01*
X117717Y114173D02*
Y111025D01*
X120079D01*
X119292Y112599D01*
Y113386D01*
X120079Y114173D01*
X121653D01*
X122440Y113386D01*
Y111812D01*
X121653Y111025D01*
X107481Y106302D02*
X112204D01*
Y108663D01*
X111417Y109450D01*
X110630D01*
X109843Y108663D01*
Y106302D01*
Y108663D01*
X109055Y109450D01*
X108268D01*
X107481Y108663D01*
Y106302D01*
X108268Y111025D02*
X107481Y111812D01*
Y113386D01*
X108268Y114173D01*
X109055D01*
X109843Y113386D01*
Y112599D01*
Y113386D01*
X110630Y114173D01*
X111417D01*
X112204Y113386D01*
Y111812D01*
X111417Y111025D01*
X97639Y106302D02*
X102361D01*
Y108663D01*
X101574Y109450D01*
X100787D01*
X100000Y108663D01*
Y106302D01*
Y108663D01*
X99213Y109450D01*
X98426D01*
X97639Y108663D01*
Y106302D01*
X102361Y113386D02*
X97639D01*
X100000Y111025D01*
Y114173D01*
X87796Y106302D02*
X92519D01*
Y108663D01*
X91732Y109450D01*
X90945D01*
X90158Y108663D01*
Y106302D01*
Y108663D01*
X89370Y109450D01*
X88583D01*
X87796Y108663D01*
Y106302D01*
Y114173D02*
Y111025D01*
X90158D01*
X89370Y112599D01*
Y113386D01*
X90158Y114173D01*
X91732D01*
X92519Y113386D01*
Y111812D01*
X91732Y111025D01*
X77953Y106302D02*
X82676D01*
Y108663D01*
X81889Y109450D01*
X81102D01*
X80315Y108663D01*
Y106302D01*
Y108663D01*
X79528Y109450D01*
X78741D01*
X77953Y108663D01*
Y106302D01*
Y114173D02*
X78741Y112599D01*
X80315Y111025D01*
X81889D01*
X82676Y111812D01*
Y113386D01*
X81889Y114173D01*
X81102D01*
X80315Y113386D01*
Y111025D01*
X67717Y106302D02*
X72440D01*
Y108663D01*
X71653Y109450D01*
X70866D01*
X70079Y108663D01*
Y106302D01*
Y108663D01*
X69292Y109450D01*
X68504D01*
X67717Y108663D01*
Y106302D01*
Y111025D02*
Y114173D01*
X68504D01*
X71653Y111025D01*
X72440D01*
X57875Y106302D02*
X62598D01*
Y108663D01*
X61810Y109450D01*
X61023D01*
X60236Y108663D01*
Y106302D01*
Y108663D01*
X59449Y109450D01*
X58662D01*
X57875Y108663D01*
Y106302D01*
X58662Y111025D02*
X57875Y111812D01*
Y113386D01*
X58662Y114173D01*
X59449D01*
X60236Y113386D01*
X61023Y114173D01*
X61810D01*
X62598Y113386D01*
Y111812D01*
X61810Y111025D01*
X61023D01*
X60236Y111812D01*
X59449Y111025D01*
X58662D01*
X60236Y111812D02*
Y113386D01*
X47639Y106302D02*
X52361D01*
Y108663D01*
X51574Y109450D01*
X50787D01*
X50000Y108663D01*
Y106302D01*
Y108663D01*
X49213Y109450D01*
X48426D01*
X47639Y108663D01*
Y106302D01*
X51574Y111025D02*
X52361Y111812D01*
Y113386D01*
X51574Y114173D01*
X48426D01*
X47639Y113386D01*
Y111812D01*
X48426Y111025D01*
X49213D01*
X50000Y111812D01*
Y114173D01*
X42125Y106302D02*
X38977D01*
X37402Y107876D01*
X38977Y109450D01*
X42125D01*
X39764D01*
Y106302D01*
X38190Y111025D02*
X37402Y111812D01*
Y113386D01*
X38190Y114173D01*
X41338D01*
X42125Y113386D01*
Y111812D01*
X41338Y111025D01*
X38190D01*
X27560Y101579D02*
X32283D01*
Y103940D01*
X31495Y104727D01*
X30708D01*
X29921Y103940D01*
Y101579D01*
Y103940D01*
X29134Y104727D01*
X28347D01*
X27560Y103940D01*
Y101579D01*
X32283Y106302D02*
X29134D01*
X27560Y107876D01*
X29134Y109450D01*
X32283D01*
X29921D01*
Y106302D01*
X27560Y111025D02*
Y114173D01*
Y112599D01*
X32283D01*
X18504Y105515D02*
X17717Y104727D01*
Y103153D01*
X18504Y102366D01*
X21653D01*
X22440Y103153D01*
Y104727D01*
X21653Y105515D01*
X22440Y107089D02*
Y108663D01*
Y107876D01*
X17717D01*
X18504Y107089D01*
Y111025D02*
X17717Y111812D01*
Y113386D01*
X18504Y114173D01*
X19292D01*
X20079Y113386D01*
Y112599D01*
Y113386D01*
X20866Y114173D01*
X21653D01*
X22440Y113386D01*
Y111812D01*
X21653Y111025D01*
X8269Y105515D02*
X7482Y104727D01*
Y103153D01*
X8269Y102366D01*
X11418D01*
X12205Y103153D01*
Y104727D01*
X11418Y105515D01*
X12205Y107089D02*
Y108663D01*
Y107876D01*
X7482D01*
X8269Y107089D01*
X12205Y113386D02*
X7482D01*
X9843Y111025D01*
Y114173D01*
X-1180Y105515D02*
X-1967Y104727D01*
Y103153D01*
X-1180Y102366D01*
X1969D01*
X2756Y103153D01*
Y104727D01*
X1969Y105515D01*
X2756Y107089D02*
Y108663D01*
Y107876D01*
X-1967D01*
X-1180Y107089D01*
X-1967Y114173D02*
Y111025D01*
X395D01*
X-393Y112599D01*
Y113386D01*
X395Y114173D01*
X1969D01*
X2756Y113386D01*
Y111812D01*
X1969Y111025D01*
X42915Y98031D02*
X46064D01*
Y97244D01*
X42915Y94095D01*
Y93308D01*
X46064D01*
X47638Y98031D02*
Y93308D01*
X49212Y94882D01*
X50787Y93308D01*
Y98031D01*
X52361Y93308D02*
X53935D01*
X53148D01*
Y98031D01*
X52361Y97244D01*
X102364Y94094D02*
X105512D01*
X103938D01*
Y89371D01*
X107086Y94094D02*
X110235Y89371D01*
Y94094D02*
X107086Y89371D01*
X169685Y122283D02*
X168111D01*
X168898D01*
Y118347D01*
X168111Y117560D01*
X167324D01*
X166536Y118347D01*
X171259Y117560D02*
X172834D01*
X172046D01*
Y122283D01*
X171259Y121496D01*
X99608Y101574D02*
Y96851D01*
X101970D01*
X102757Y97638D01*
Y100787D01*
X101970Y101574D01*
X99608D01*
X104331D02*
Y96851D01*
X106693D01*
X107480Y97638D01*
Y98425D01*
Y99212D01*
X106693Y99999D01*
X104331D01*
X110628Y95277D02*
X111416D01*
X112203Y96064D01*
Y99999D01*
X109841D01*
X109054Y99212D01*
Y97638D01*
X109841Y96851D01*
X112203D01*
D12*
X24327Y97701D02*
X30927D01*
X24327Y89701D02*
X30927D01*
X34927D02*
X41027D01*
X34927Y97701D02*
X41027D01*
X24327Y89701D02*
Y97701D01*
X41027Y89701D02*
Y97701D01*
X97701Y52280D02*
Y58380D01*
X89701Y52280D02*
Y58380D01*
Y52280D02*
X97701D01*
X89701Y68980D02*
X97701D01*
Y62880D02*
Y68980D01*
X89701Y62880D02*
Y68980D01*
X98961Y47812D02*
X118361D01*
Y63212D01*
X98961D02*
X118361D01*
X98961Y47812D02*
Y63212D01*
X99061Y50867D02*
X102561Y47812D01*
X151099Y26709D02*
Y34709D01*
X167799Y26709D02*
Y34709D01*
X151099Y26709D02*
X157199D01*
X151099Y34709D02*
X157199D01*
X161199D02*
X167799D01*
X161199Y26709D02*
X167799D01*
X143370Y21209D02*
X147870D01*
X143370Y32709D02*
X147870D01*
Y21209D02*
Y23209D01*
X138870Y26709D02*
Y27209D01*
X147870Y30709D02*
Y32709D01*
D13*
X85630Y61417D02*
Y72441D01*
X80512Y61417D02*
Y72441D01*
X135630Y20866D02*
Y31890D01*
X130512Y20866D02*
Y31890D01*
X119488Y20472D02*
Y31496D01*
X124606Y20472D02*
Y31496D01*
X89961Y79527D02*
Y90551D01*
X95079Y79527D02*
Y90551D01*
X29724Y39370D02*
Y50394D01*
X34843Y39370D02*
Y50394D01*
X24606Y39370D02*
Y50394D01*
X29724Y39370D02*
Y50394D01*
X19488Y39370D02*
Y50394D01*
X24606Y39370D02*
Y50394D01*
X124803Y65945D02*
X135827D01*
X124803Y60827D02*
X135827D01*
X124803Y50591D02*
X135827D01*
X124803Y45472D02*
X135827D01*
X103937Y82874D02*
X114961D01*
X103937Y77756D02*
X114961D01*
X103937Y82874D02*
X114961D01*
X103937Y87992D02*
X114961D01*
X124803Y60827D02*
X135827D01*
X124803Y55709D02*
X135827D01*
X124803Y55709D02*
X135827D01*
X124803Y50591D02*
X135827D01*
X103937Y72638D02*
X114961D01*
X103937Y77756D02*
X114961D01*
X115157Y72835D02*
Y83858D01*
X120276Y72835D02*
Y83858D01*
X197Y48031D02*
Y59055D01*
X-4921Y48031D02*
Y59055D01*
Y61417D02*
Y72441D01*
X197Y61417D02*
Y72441D01*
X12598Y95079D02*
X23622D01*
X12598Y100197D02*
X23622D01*
X124409Y39961D02*
X135433D01*
X124409Y45079D02*
X135433D01*
X124409Y39961D02*
X135433D01*
X124409Y34843D02*
X135433D01*
X21654Y56496D02*
X32677D01*
X21654Y51378D02*
X32677D01*
X24016Y83268D02*
X35039D01*
X24016Y88386D02*
X35039D01*
X151575Y25787D02*
X162598D01*
X151575Y20669D02*
X162598D01*
X24016Y82874D02*
X35039D01*
X24016Y77756D02*
X35039D01*
X38583Y80118D02*
X49606D01*
X38583Y85236D02*
X49606D01*
X38583Y75000D02*
X49606D01*
X38583Y80118D02*
X49606D01*
X66929Y31299D02*
X77953D01*
X66929Y26181D02*
X77953D01*
X177165Y4992D02*
X173229D01*
Y6960D01*
X173885Y7616D01*
X175197D01*
X175853Y6960D01*
Y4992D01*
Y6304D02*
X177165Y7616D01*
X173885Y11551D02*
X173229Y10895D01*
Y9584D01*
X173885Y8928D01*
X174541D01*
X175197Y9584D01*
Y10895D01*
X175853Y11551D01*
X176509D01*
X177165Y10895D01*
Y9584D01*
X176509Y8928D01*
X177165Y15487D02*
Y12863D01*
X174541Y15487D01*
X173885D01*
X173229Y14831D01*
Y13519D01*
X173885Y12863D01*
Y16799D02*
X173229Y17455D01*
Y18767D01*
X173885Y19423D01*
X174541D01*
X175197Y18767D01*
Y18111D01*
Y18767D01*
X175853Y19423D01*
X176509D01*
X177165Y18767D01*
Y17455D01*
X176509Y16799D01*
X177165Y23359D02*
Y20735D01*
X174541Y23359D01*
X173885D01*
X173229Y22703D01*
Y21391D01*
X173885Y20735D01*
X173229Y24670D02*
X176509D01*
X177165Y25326D01*
Y26638D01*
X176509Y27294D01*
X173229D01*
X173885Y31230D02*
X173229Y30574D01*
Y29262D01*
X173885Y28606D01*
X174541D01*
X175197Y29262D01*
Y30574D01*
X175853Y31230D01*
X176509D01*
X177165Y30574D01*
Y29262D01*
X176509Y28606D01*
X173229Y32542D02*
X177165D01*
Y34510D01*
X176509Y35166D01*
X175853D01*
X175197Y34510D01*
Y32542D01*
Y34510D01*
X174541Y35166D01*
X173885D01*
X173229Y34510D01*
Y32542D01*
D14*
X97244Y40748D02*
Y50787D01*
X98961D01*
X169685Y2361D02*
X168111D01*
X168898D01*
Y-1574D01*
X168111Y-2361D01*
X167324D01*
X166537Y-1574D01*
X174408Y-2361D02*
X171260D01*
X174408Y787D01*
Y1574D01*
X173621Y2361D01*
X172047D01*
X171260Y1574D01*
D15*
X97244Y26772D02*
Y34646D01*
X112205Y26772D02*
Y34646D01*
X72244Y103347D02*
X74016Y101575D01*
X72244Y94291D02*
X74016Y96063D01*
X74016D02*
X74803Y94882D01*
X81102D01*
X81890Y96063D01*
X82677Y94882D01*
X88976D01*
X89764Y96063D01*
X89764D02*
X90551Y94882D01*
X96850D01*
X97638Y96063D01*
X96850Y102756D02*
X97638Y101575D01*
X90551Y102756D02*
X96850D01*
X89764Y101575D02*
X90551Y102756D01*
X88976D02*
X89764Y101575D01*
X82677Y102756D02*
X88976D01*
X81890Y101575D02*
X82677Y102756D01*
X81102D02*
X81890Y101575D01*
X74803Y102756D02*
X81102D01*
X74016Y101575D02*
X74803Y102756D01*
X97638Y96063D02*
Y101575D01*
X174874Y94370D02*
Y97370D01*
X140874D02*
X174874D01*
X140874Y94370D02*
Y97370D01*
Y81370D02*
Y84370D01*
Y81370D02*
X174874D01*
Y84370D01*
X38862Y69484D02*
X42799D01*
X38862D02*
X40437Y66925D01*
X44374Y70862D01*
X40437Y35429D02*
Y39366D01*
Y35429D02*
X44374D01*
X71933D02*
X75870D01*
Y39366D01*
Y66925D02*
Y70862D01*
X71933D02*
X75870D01*
X126465Y94878D02*
X140465D01*
X126465Y71378D02*
X140465D01*
X126465Y87378D02*
Y94878D01*
X140465Y87378D02*
Y94878D01*
Y71378D02*
Y78878D01*
X126465Y71378D02*
Y78878D01*
X-9843Y-7874D02*
Y129921D01*
X183071D01*
X183071Y-7874D01*
X-9843D02*
X183071D01*
D16*
X66929Y103347D02*
X72244D01*
X66732Y94291D02*
X72244D01*
X65748Y95276D02*
X66732Y94291D01*
X65748Y95276D02*
Y102165D01*
X66929Y103347D01*
M02*
