G04*
G04 #@! TF.GenerationSoftware,Altium Limited,Altium Designer,20.2.6 (244)*
G04*
G04 Layer_Color=16711935*
%FSLAX25Y25*%
%MOIN*%
G70*
G04*
G04 #@! TF.SameCoordinates,98507788-8A11-4182-AA0E-0FE8B404AF89*
G04*
G04*
G04 #@! TF.FilePolarity,Negative*
G04*
G01*
G75*
%ADD15C,0.01000*%
%ADD33C,0.07787*%
%ADD34R,0.07787X0.07787*%
%ADD35C,0.04331*%
%ADD36R,0.09055X0.23622*%
%ADD37R,0.06299X0.06299*%
%ADD38O,0.05906X0.06693*%
D15*
X-9843Y-7874D02*
Y129921D01*
X183071D01*
X183071Y-7874D01*
X-9843D02*
X183071D01*
D33*
X160000Y0D02*
D03*
X150000D02*
D03*
X140000D02*
D03*
X130000D02*
D03*
X120000D02*
D03*
X110000D02*
D03*
X100000D02*
D03*
X90000D02*
D03*
X80000D02*
D03*
X70000D02*
D03*
X60000D02*
D03*
X50000D02*
D03*
X40000D02*
D03*
X30000D02*
D03*
X20000D02*
D03*
X10000D02*
D03*
X160000Y120000D02*
D03*
X150000D02*
D03*
X140000D02*
D03*
X130000D02*
D03*
X120000D02*
D03*
X110000D02*
D03*
X100000D02*
D03*
X90000D02*
D03*
X80000D02*
D03*
X70000D02*
D03*
X60000D02*
D03*
X50000D02*
D03*
X40000D02*
D03*
X30000D02*
D03*
X20000D02*
D03*
X10000D02*
D03*
D34*
X0Y0D02*
D03*
Y120000D02*
D03*
D35*
X161024Y66929D02*
D03*
X161024Y49606D02*
D03*
X92913Y76772D02*
D03*
X127559Y25984D02*
D03*
X168504Y111024D02*
D03*
X145669Y109449D02*
D03*
X135039Y107874D02*
D03*
X153150Y85433D02*
D03*
X122835Y81890D02*
D03*
X121653Y59842D02*
D03*
Y52362D02*
D03*
X102756Y60236D02*
D03*
X95276Y38189D02*
D03*
X135433Y14567D02*
D03*
X92520Y21260D02*
D03*
X89370Y44488D02*
D03*
X93701Y48425D02*
D03*
X85039Y110236D02*
D03*
X77953Y72835D02*
D03*
X47244Y55905D02*
D03*
X74803Y23622D02*
D03*
X135827Y98032D02*
D03*
X104724Y109843D02*
D03*
X-2362Y75984D02*
D03*
X88189Y35433D02*
D03*
X133071Y68504D02*
D03*
X14961Y102756D02*
D03*
X32677Y75197D02*
D03*
X34646Y68642D02*
D03*
X26378Y70866D02*
D03*
X29528Y66535D02*
D03*
X84646Y50394D02*
D03*
X22047Y36220D02*
D03*
X46457Y40157D02*
D03*
X70472Y41339D02*
D03*
X32283Y36614D02*
D03*
X47244Y50787D02*
D03*
Y89370D02*
D03*
X68898Y46850D02*
D03*
X69363Y53937D02*
D03*
X65354Y40945D02*
D03*
X127559Y31890D02*
D03*
X122047Y47638D02*
D03*
X113779Y50394D02*
D03*
X108268Y51968D02*
D03*
X94882Y72047D02*
D03*
X68898Y59842D02*
D03*
X51181Y64961D02*
D03*
X47638Y45276D02*
D03*
X122047Y42520D02*
D03*
X72835Y76772D02*
D03*
X71260Y81890D02*
D03*
X74803Y88976D02*
D03*
D36*
X10236Y77716D02*
D03*
Y42756D02*
D03*
D37*
X36927Y93701D02*
D03*
X28427D02*
D03*
X163699Y30709D02*
D03*
X155199D02*
D03*
D38*
X70079Y98819D02*
D03*
X77953D02*
D03*
X85827D02*
D03*
X93701D02*
D03*
M02*
