G04*
G04 #@! TF.GenerationSoftware,Altium Limited,Altium Designer,20.2.6 (244)*
G04*
G04 Layer_Physical_Order=2*
G04 Layer_Color=255*
%FSLAX25Y25*%
%MOIN*%
G70*
G04*
G04 #@! TF.SameCoordinates,05D6BC93-F204-4B59-986D-561AD4BAE22A*
G04*
G04*
G04 #@! TF.FilePolarity,Positive*
G04*
G01*
G75*
%ADD11C,0.00787*%
%ADD12C,0.00800*%
%ADD14C,0.00984*%
%ADD15C,0.01000*%
%ADD16C,0.01968*%
%ADD59C,0.01181*%
%ADD60R,0.07000X0.07000*%
%ADD61C,0.07000*%
%ADD62C,0.03543*%
%ADD63R,0.08268X0.22835*%
%ADD64R,0.05512X0.05512*%
%ADD65O,0.05118X0.05906*%
G36*
X181064Y-5867D02*
X-7835D01*
X-7835Y127914D01*
X181064D01*
X181064Y-5867D01*
D02*
G37*
%LPC*%
G36*
X160000Y124722D02*
X158778Y124561D01*
X157639Y124089D01*
X157031Y123622D01*
X152969D01*
X152361Y124089D01*
X151222Y124561D01*
X150000Y124722D01*
X148778Y124561D01*
X147639Y124089D01*
X147031Y123622D01*
X142969D01*
X142361Y124089D01*
X141222Y124561D01*
X140000Y124722D01*
X138778Y124561D01*
X137639Y124089D01*
X137031Y123622D01*
X132969D01*
X132361Y124089D01*
X131222Y124561D01*
X130000Y124722D01*
X128778Y124561D01*
X127639Y124089D01*
X127031Y123622D01*
X122969D01*
X122361Y124089D01*
X121222Y124561D01*
X120000Y124722D01*
X118778Y124561D01*
X117639Y124089D01*
X117031Y123622D01*
X112969D01*
X112361Y124089D01*
X111222Y124561D01*
X110000Y124722D01*
X108778Y124561D01*
X107639Y124089D01*
X107031Y123622D01*
X102969D01*
X102361Y124089D01*
X101222Y124561D01*
X100000Y124722D01*
X98778Y124561D01*
X97639Y124089D01*
X97031Y123622D01*
X92969D01*
X92361Y124089D01*
X91222Y124561D01*
X90000Y124722D01*
X88778Y124561D01*
X87639Y124089D01*
X87031Y123622D01*
X82969D01*
X82361Y124089D01*
X81222Y124561D01*
X80000Y124722D01*
X78778Y124561D01*
X77639Y124089D01*
X77031Y123622D01*
X72969D01*
X72361Y124089D01*
X71222Y124561D01*
X70000Y124722D01*
X68778Y124561D01*
X67639Y124089D01*
X67031Y123622D01*
X62969D01*
X62361Y124089D01*
X61222Y124561D01*
X60000Y124722D01*
X58778Y124561D01*
X57639Y124089D01*
X57031Y123622D01*
X52969D01*
X52361Y124089D01*
X51222Y124561D01*
X50000Y124722D01*
X48778Y124561D01*
X47639Y124089D01*
X47031Y123622D01*
X42969D01*
X42361Y124089D01*
X41222Y124561D01*
X40000Y124722D01*
X38778Y124561D01*
X37639Y124089D01*
X37031Y123622D01*
X32969D01*
X32361Y124089D01*
X31222Y124561D01*
X30000Y124722D01*
X28778Y124561D01*
X27639Y124089D01*
X27031Y123622D01*
X22969D01*
X22361Y124089D01*
X21222Y124561D01*
X20000Y124722D01*
X18778Y124561D01*
X17639Y124089D01*
X17031Y123622D01*
X12969D01*
X12361Y124089D01*
X11222Y124561D01*
X10000Y124722D01*
X8778Y124561D01*
X7639Y124089D01*
X7031Y123622D01*
X4681D01*
Y124681D01*
X-4681D01*
Y115319D01*
X4681D01*
Y116535D01*
X6826D01*
X7639Y115911D01*
X8778Y115439D01*
X10000Y115278D01*
X11222Y115439D01*
X12361Y115911D01*
X13174Y116535D01*
X16826D01*
X17639Y115911D01*
X18294Y115640D01*
Y83543D01*
X18424Y82890D01*
X18794Y82337D01*
X26724Y74406D01*
X26443Y73836D01*
X26378Y73844D01*
X25607Y73743D01*
X24889Y73445D01*
X24272Y72972D01*
X23799Y72355D01*
X23501Y71637D01*
X23400Y70866D01*
X23501Y70095D01*
X23799Y69377D01*
X24272Y68760D01*
X24672Y68453D01*
Y59449D01*
X24802Y58796D01*
X25172Y58242D01*
X28715Y54699D01*
X29268Y54329D01*
X29921Y54199D01*
X44831D01*
X45138Y53800D01*
X45755Y53326D01*
X46473Y53029D01*
X47244Y52927D01*
X48015Y53029D01*
X48733Y53326D01*
X49266Y53736D01*
X49590Y53655D01*
X49869Y53486D01*
Y49919D01*
X48138Y48188D01*
X47638Y48254D01*
X46867Y48152D01*
X46149Y47855D01*
X45532Y47381D01*
X45059Y46765D01*
X44761Y46046D01*
X44660Y45276D01*
X44761Y44505D01*
X45059Y43786D01*
X45268Y43513D01*
X45085Y42785D01*
X44968Y42737D01*
X44351Y42263D01*
X44121Y41964D01*
X36969D01*
X36317Y42616D01*
X35731Y43007D01*
X35039Y43145D01*
X25197D01*
X24506Y43007D01*
X23920Y42616D01*
X21312Y40009D01*
X20921Y39423D01*
X20818Y38908D01*
X20558Y38800D01*
X19941Y38326D01*
X19468Y37710D01*
X19171Y36991D01*
X19069Y36220D01*
X19171Y35450D01*
X19468Y34731D01*
X19941Y34115D01*
X20558Y33641D01*
X21276Y33344D01*
X22047Y33242D01*
X22818Y33344D01*
X23536Y33641D01*
X24153Y34115D01*
X24626Y34731D01*
X24924Y35450D01*
X25025Y36220D01*
X24924Y36991D01*
X24626Y37710D01*
X24408Y37995D01*
X25945Y39532D01*
X34291D01*
X34943Y38880D01*
X35529Y38489D01*
X36220Y38351D01*
X44121D01*
X44351Y38052D01*
X44968Y37578D01*
X45686Y37281D01*
X46457Y37179D01*
X47227Y37281D01*
X47946Y37578D01*
X48563Y38052D01*
X49036Y38668D01*
X49333Y39387D01*
X49435Y40157D01*
X49333Y40928D01*
X49036Y41647D01*
X48826Y41920D01*
X49010Y42648D01*
X49127Y42696D01*
X49744Y43170D01*
X50217Y43786D01*
X50515Y44505D01*
X50616Y45276D01*
X50550Y45775D01*
X52781Y48006D01*
X53151Y48560D01*
X53281Y49213D01*
Y57087D01*
X53151Y57740D01*
X52781Y58293D01*
X50025Y61049D01*
X49472Y61419D01*
X48819Y61549D01*
X43226D01*
X40682Y64092D01*
Y87482D01*
X42939Y89739D01*
X43308Y90292D01*
X43438Y90945D01*
Y102362D01*
X43308Y103015D01*
X42939Y103568D01*
X41706Y104801D01*
Y115640D01*
X42361Y115911D01*
X43174Y116535D01*
X46826D01*
X47639Y115911D01*
X48778Y115439D01*
X50000Y115278D01*
X51222Y115439D01*
X52361Y115911D01*
X53174Y116535D01*
X56826D01*
X57639Y115911D01*
X58778Y115439D01*
X60000Y115278D01*
X61222Y115439D01*
X62361Y115911D01*
X63174Y116535D01*
X66826D01*
X67639Y115911D01*
X68778Y115439D01*
X70000Y115278D01*
X71222Y115439D01*
X72361Y115911D01*
X73174Y116535D01*
X76826D01*
X77639Y115911D01*
X78778Y115439D01*
X80000Y115278D01*
X81222Y115439D01*
X82361Y115911D01*
X83174Y116535D01*
X86826D01*
X87639Y115911D01*
X88778Y115439D01*
X90000Y115278D01*
X91222Y115439D01*
X92361Y115911D01*
X93174Y116535D01*
X94044D01*
X94275Y115979D01*
X80683Y102387D01*
X80683Y102386D01*
X80088Y102288D01*
X79839Y102480D01*
X78929Y102857D01*
X77953Y102985D01*
X76976Y102857D01*
X76066Y102480D01*
X75285Y101880D01*
X74686Y101099D01*
X74352Y100293D01*
X74016Y100239D01*
X73680Y100293D01*
X73346Y101099D01*
X72746Y101880D01*
X71965Y102480D01*
X71055Y102857D01*
X70079Y102985D01*
X69102Y102857D01*
X68192Y102480D01*
X67411Y101880D01*
X66812Y101099D01*
X66435Y100189D01*
X66306Y99213D01*
Y98425D01*
X66435Y97449D01*
X66468Y97369D01*
X60275Y91176D01*
X49580D01*
X49350Y91476D01*
X48733Y91949D01*
X48015Y92247D01*
X47244Y92348D01*
X46473Y92247D01*
X45755Y91949D01*
X45138Y91476D01*
X44665Y90859D01*
X44367Y90141D01*
X44266Y89370D01*
X44367Y88599D01*
X44665Y87881D01*
X45138Y87264D01*
X45755Y86791D01*
X46473Y86493D01*
X47244Y86392D01*
X48015Y86493D01*
X48733Y86791D01*
X49350Y87264D01*
X49580Y87564D01*
X61024D01*
X61715Y87701D01*
X62301Y88093D01*
X69023Y94814D01*
X69102Y94781D01*
X70079Y94653D01*
X71055Y94781D01*
X71965Y95158D01*
X72746Y95758D01*
X73346Y96539D01*
X73680Y97345D01*
X74016Y97399D01*
X74352Y97345D01*
X74686Y96539D01*
X75285Y95758D01*
X76066Y95158D01*
X76976Y94781D01*
X77301Y94739D01*
X77517Y94103D01*
X75303Y91889D01*
X74803Y91955D01*
X74032Y91853D01*
X73314Y91556D01*
X72697Y91082D01*
X72224Y90465D01*
X71926Y89747D01*
X71825Y88976D01*
X71926Y88206D01*
X72224Y87487D01*
X72697Y86870D01*
X72855Y86749D01*
X72907Y85950D01*
X71760Y84802D01*
X71260Y84868D01*
X70489Y84767D01*
X69771Y84469D01*
X69154Y83996D01*
X68681Y83379D01*
X68383Y82661D01*
X68282Y81890D01*
X68383Y81119D01*
X68681Y80401D01*
X69154Y79784D01*
X69771Y79311D01*
X70174Y79144D01*
X70395Y78487D01*
X70385Y78430D01*
X70255Y78261D01*
X69958Y77543D01*
X69856Y76772D01*
X69958Y76001D01*
X70255Y75283D01*
X70729Y74666D01*
X71346Y74192D01*
X72064Y73895D01*
X72835Y73793D01*
X73606Y73895D01*
X74324Y74192D01*
X74941Y74666D01*
X75248Y75066D01*
X83465D01*
X84117Y75195D01*
X84671Y75565D01*
X86274Y77169D01*
X86877Y76919D01*
Y69204D01*
X73316Y55643D01*
X71776D01*
X71469Y56043D01*
X70852Y56516D01*
X70134Y56814D01*
X69363Y56915D01*
X68592Y56814D01*
X67874Y56516D01*
X67257Y56043D01*
X66784Y55426D01*
X66486Y54708D01*
X66385Y53937D01*
X66486Y53166D01*
X66784Y52448D01*
X67257Y51831D01*
X67874Y51358D01*
X68592Y51060D01*
X69363Y50959D01*
X70134Y51060D01*
X70852Y51358D01*
X71469Y51831D01*
X71776Y52231D01*
X73047D01*
X73278Y51674D01*
X70752Y49149D01*
X70387Y49430D01*
X69669Y49727D01*
X68898Y49829D01*
X68127Y49727D01*
X67409Y49430D01*
X66792Y48956D01*
X66318Y48340D01*
X66021Y47621D01*
X65919Y46850D01*
X66021Y46080D01*
X66318Y45361D01*
X66792Y44745D01*
X67409Y44271D01*
X68088Y43990D01*
X68204Y43762D01*
X68290Y43345D01*
X67893Y42828D01*
X67596Y42109D01*
X67494Y41339D01*
X67596Y40568D01*
X67893Y39849D01*
X68366Y39233D01*
X68983Y38759D01*
X69702Y38462D01*
X70472Y38360D01*
X71243Y38462D01*
X71962Y38759D01*
X72578Y39233D01*
X72808Y39532D01*
X75630D01*
X89668Y25494D01*
X90254Y25103D01*
X90945Y24965D01*
X121299D01*
X121557Y24707D01*
X122143Y24315D01*
X122835Y24178D01*
X125223D01*
X125453Y23878D01*
X126070Y23405D01*
X126788Y23108D01*
X127559Y23006D01*
X128330Y23108D01*
X129048Y23405D01*
X129665Y23878D01*
X130138Y24495D01*
X130436Y25213D01*
X130537Y25984D01*
X130436Y26755D01*
X130138Y27473D01*
X129665Y28090D01*
X129048Y28563D01*
X128330Y28861D01*
X127559Y28962D01*
X126788Y28861D01*
X126070Y28563D01*
X125453Y28090D01*
X125223Y27791D01*
X123583D01*
X123325Y28049D01*
X122739Y28440D01*
X122047Y28578D01*
X91693D01*
X77655Y42616D01*
X77069Y43007D01*
X76378Y43145D01*
X72808D01*
X72578Y43444D01*
X71962Y43918D01*
X71282Y44199D01*
X71166Y44427D01*
X71080Y44844D01*
X71477Y45361D01*
X71548Y45533D01*
X71835Y45590D01*
X72389Y45960D01*
X90864Y64436D01*
X123228D01*
X123881Y64566D01*
X124435Y64935D01*
X130734Y71235D01*
X131104Y71788D01*
X131234Y72441D01*
Y81577D01*
X161153Y111496D01*
X161523Y112050D01*
X161653Y112703D01*
Y115618D01*
X162361Y115911D01*
X163339Y116661D01*
X164089Y117639D01*
X164561Y118778D01*
X164722Y120000D01*
X164561Y121222D01*
X164089Y122361D01*
X163339Y123339D01*
X162361Y124089D01*
X161222Y124561D01*
X160000Y124722D01*
D02*
G37*
G36*
X15551Y90315D02*
X4921D01*
Y65118D01*
X15551D01*
Y90315D01*
D02*
G37*
G36*
X161024Y69907D02*
X160253Y69806D01*
X159535Y69508D01*
X158918Y69035D01*
X158444Y68418D01*
X158147Y67700D01*
X158045Y66929D01*
X158147Y66158D01*
X158444Y65440D01*
X158918Y64823D01*
X159535Y64350D01*
X160253Y64052D01*
X161024Y63951D01*
X161794Y64052D01*
X162513Y64350D01*
X163129Y64823D01*
X163603Y65440D01*
X163900Y66158D01*
X164002Y66929D01*
X163900Y67700D01*
X163603Y68418D01*
X163129Y69035D01*
X162513Y69508D01*
X161794Y69806D01*
X161024Y69907D01*
D02*
G37*
G36*
X121653Y62821D02*
X120883Y62719D01*
X120164Y62422D01*
X119548Y61949D01*
X119074Y61332D01*
X118777Y60613D01*
X118675Y59842D01*
X118777Y59072D01*
X119074Y58353D01*
X119548Y57737D01*
X119948Y57430D01*
Y54775D01*
X119548Y54468D01*
X119074Y53851D01*
X118777Y53133D01*
X118675Y52362D01*
X118777Y51591D01*
X119074Y50873D01*
X119548Y50256D01*
X120164Y49783D01*
X120883Y49485D01*
X121653Y49384D01*
X122424Y49485D01*
X123143Y49783D01*
X123759Y50256D01*
X124233Y50873D01*
X124530Y51591D01*
X124632Y52362D01*
X124530Y53133D01*
X124233Y53851D01*
X123759Y54468D01*
X123360Y54775D01*
Y57430D01*
X123759Y57737D01*
X124233Y58353D01*
X124530Y59072D01*
X124632Y59842D01*
X124530Y60613D01*
X124233Y61332D01*
X123759Y61949D01*
X123143Y62422D01*
X122424Y62719D01*
X121653Y62821D01*
D02*
G37*
G36*
X103937Y58005D02*
X90158D01*
X89505Y57875D01*
X88951Y57506D01*
X84798Y53352D01*
X84646Y53372D01*
X83875Y53271D01*
X83157Y52973D01*
X82540Y52500D01*
X82066Y51883D01*
X81769Y51165D01*
X81667Y50394D01*
X81769Y49623D01*
X82066Y48905D01*
X82540Y48288D01*
X83157Y47815D01*
X83875Y47517D01*
X84646Y47416D01*
X85417Y47517D01*
X86135Y47815D01*
X86752Y48288D01*
X87225Y48905D01*
X87522Y49623D01*
X87624Y50394D01*
X87522Y51165D01*
X87497Y51226D01*
X90864Y54593D01*
X103230D01*
X104231Y53593D01*
X104231Y53592D01*
X105355Y52468D01*
X105289Y51968D01*
X105391Y51198D01*
X105689Y50479D01*
X106162Y49863D01*
X106779Y49389D01*
X107497Y49092D01*
X108268Y48990D01*
X109038Y49092D01*
X109757Y49389D01*
X110374Y49863D01*
X110847Y50479D01*
X111144Y51198D01*
X111246Y51968D01*
X111144Y52739D01*
X110847Y53458D01*
X110374Y54074D01*
X109757Y54548D01*
X109038Y54845D01*
X108268Y54947D01*
X107768Y54881D01*
X106644Y56005D01*
X106644Y56005D01*
X105143Y57506D01*
X104590Y57875D01*
X103937Y58005D01*
D02*
G37*
G36*
X93701Y51403D02*
X92930Y51302D01*
X92212Y51004D01*
X91595Y50531D01*
X91122Y49914D01*
X90824Y49196D01*
X90723Y48425D01*
X90813Y47739D01*
X90625Y47509D01*
X90323Y47289D01*
X90141Y47365D01*
X89370Y47466D01*
X88599Y47365D01*
X87881Y47067D01*
X87264Y46594D01*
X86791Y45977D01*
X86493Y45259D01*
X86392Y44488D01*
X86493Y43717D01*
X86791Y42999D01*
X87264Y42382D01*
X87664Y42075D01*
Y39370D01*
X87794Y38717D01*
X88164Y38164D01*
X89739Y36589D01*
X90292Y36219D01*
X90945Y36089D01*
X93165D01*
X93170Y36083D01*
X93787Y35610D01*
X94505Y35312D01*
X95276Y35211D01*
X96046Y35312D01*
X96765Y35610D01*
X97382Y36083D01*
X97855Y36700D01*
X98152Y37418D01*
X98254Y38189D01*
X98152Y38960D01*
X97855Y39678D01*
X97446Y40211D01*
X97526Y40535D01*
X97695Y40814D01*
X119634D01*
X119941Y40414D01*
X120558Y39941D01*
X121276Y39643D01*
X122047Y39542D01*
X122818Y39643D01*
X123536Y39941D01*
X124153Y40414D01*
X124627Y41031D01*
X124924Y41749D01*
X125025Y42520D01*
X124924Y43290D01*
X124627Y44009D01*
X124153Y44626D01*
X123536Y45099D01*
X122818Y45396D01*
X122047Y45498D01*
X121276Y45396D01*
X120558Y45099D01*
X119941Y44626D01*
X119634Y44226D01*
X96376D01*
X95407Y45195D01*
Y46012D01*
X95807Y46319D01*
X96280Y46936D01*
X96578Y47654D01*
X96679Y48425D01*
X96578Y49196D01*
X96280Y49914D01*
X95807Y50531D01*
X95190Y51004D01*
X94472Y51302D01*
X93701Y51403D01*
D02*
G37*
G36*
X161024Y52585D02*
X160253Y52483D01*
X159535Y52185D01*
X158918Y51712D01*
X158444Y51095D01*
X158147Y50377D01*
X158045Y49606D01*
X158147Y48836D01*
X158444Y48117D01*
X158918Y47500D01*
X159535Y47027D01*
X160253Y46730D01*
X161024Y46628D01*
X161794Y46730D01*
X162513Y47027D01*
X163129Y47500D01*
X163603Y48117D01*
X163900Y48836D01*
X164002Y49606D01*
X163900Y50377D01*
X163603Y51095D01*
X163129Y51712D01*
X162513Y52185D01*
X161794Y52483D01*
X161024Y52585D01*
D02*
G37*
G36*
X15551Y55354D02*
X4921D01*
Y30158D01*
X15551D01*
Y55354D01*
D02*
G37*
G36*
X159136Y34646D02*
X151262D01*
Y26772D01*
X159136D01*
Y34646D01*
D02*
G37*
G36*
X40551Y27590D02*
X39937Y27468D01*
X39416Y27120D01*
X39068Y26599D01*
X38829Y26479D01*
X38423Y26446D01*
X37749Y27120D01*
X37229Y27468D01*
X36614Y27590D01*
X36614Y27590D01*
X35039D01*
X34425Y27468D01*
X33904Y27120D01*
X33904Y27120D01*
X33465Y26680D01*
X33025Y27120D01*
X32504Y27468D01*
X31890Y27590D01*
X31890Y27590D01*
X30315D01*
X29700Y27468D01*
X29180Y27120D01*
X29180Y27120D01*
X28392Y26332D01*
X28335Y26247D01*
X27780Y25893D01*
X27165Y26015D01*
X27165Y26015D01*
X24828D01*
X24712Y26599D01*
X24364Y27120D01*
X23843Y27468D01*
X23228Y27590D01*
X22614Y27468D01*
X22093Y27120D01*
X21745Y26599D01*
X21629Y26015D01*
X20866D01*
X20252Y25893D01*
X19731Y25545D01*
X19731Y25545D01*
X18943Y24757D01*
X18595Y24237D01*
X18473Y23622D01*
X18473Y23622D01*
Y22078D01*
X15385D01*
Y25984D01*
X15263Y26599D01*
X14915Y27120D01*
X14394Y27468D01*
X13780Y27590D01*
X13165Y27468D01*
X12644Y27120D01*
X12296Y26599D01*
X12180Y26015D01*
X11417D01*
X10803Y25893D01*
X10720Y25837D01*
X10191Y25545D01*
X9670Y25893D01*
X9055Y26015D01*
X8268D01*
X7653Y25893D01*
X7480Y25777D01*
X7307Y25893D01*
X6693Y26015D01*
X6078Y25893D01*
X5557Y25545D01*
X5557Y25545D01*
X4770Y24757D01*
X4770Y24757D01*
X4422Y24237D01*
X4300Y23622D01*
Y21260D01*
X4422Y20645D01*
X4770Y20124D01*
X5291Y19776D01*
X5906Y19654D01*
X6520Y19776D01*
X6693Y19892D01*
X6866Y19776D01*
X7480Y19654D01*
X8095Y19776D01*
X8268Y19892D01*
X8441Y19776D01*
X9055Y19654D01*
X9670Y19776D01*
X9843Y19892D01*
X10016Y19776D01*
X10630Y19654D01*
X11244Y19776D01*
X11765Y20124D01*
X11842Y20240D01*
X12567D01*
X12644Y20124D01*
X13165Y19776D01*
X13311Y19747D01*
X13461Y19567D01*
X13605Y19102D01*
X13602Y19075D01*
X13583Y18980D01*
X13532Y18871D01*
X12811Y15987D01*
X12450Y15852D01*
X11989Y15424D01*
X11727Y14852D01*
X11705Y14224D01*
X12705Y8024D01*
X12770Y7848D01*
X12807Y7663D01*
X12879Y7556D01*
X12924Y7434D01*
X13052Y7297D01*
X13156Y7140D01*
X13264Y7068D01*
X13352Y6973D01*
X13523Y6895D01*
X13679Y6791D01*
X13806Y6766D01*
X13924Y6712D01*
X14112Y6705D01*
X14296Y6668D01*
X14423Y6694D01*
X14553Y6689D01*
X14729Y6754D01*
X14913Y6791D01*
X15021Y6863D01*
X15142Y6908D01*
X15280Y7036D01*
X15436Y7140D01*
X15508Y7248D01*
X15603Y7337D01*
X15681Y7507D01*
X15785Y7663D01*
X15811Y7790D01*
X15865Y7908D01*
X15871Y8096D01*
X15908Y8280D01*
Y10668D01*
X18496D01*
X18601Y10689D01*
X18708Y10682D01*
X18907Y10750D01*
X19113Y10791D01*
X19202Y10851D01*
X19304Y10885D01*
X19461Y11024D01*
X19636Y11140D01*
X19696Y11230D01*
X19776Y11300D01*
X19869Y11489D01*
X19985Y11663D01*
X20006Y11769D01*
X20054Y11865D01*
X20206Y12436D01*
X20808Y12425D01*
X20925Y11918D01*
X20980Y11795D01*
X21007Y11663D01*
X21108Y11511D01*
X21183Y11344D01*
X21282Y11252D01*
X21356Y11140D01*
X21508Y11039D01*
X21642Y10913D01*
X21767Y10866D01*
X21879Y10791D01*
X22059Y10755D01*
X22230Y10690D01*
X22364Y10695D01*
X22496Y10668D01*
X22676Y10704D01*
X22859Y10710D01*
X22981Y10765D01*
X23113Y10791D01*
X23265Y10893D01*
X23432Y10968D01*
X23524Y11066D01*
X23636Y11140D01*
X23738Y11293D01*
X23863Y11426D01*
X23911Y11552D01*
X23985Y11663D01*
X24021Y11843D01*
X24086Y12014D01*
X24082Y12149D01*
X24108Y12280D01*
Y13868D01*
X24696D01*
X24970Y13923D01*
X25247Y13965D01*
X25577Y13461D01*
X25924Y11925D01*
X26025Y11697D01*
X26107Y11461D01*
X26152Y11412D01*
X26179Y11350D01*
X26360Y11179D01*
X26526Y10992D01*
X26587Y10963D01*
X26635Y10917D01*
X26868Y10828D01*
X27093Y10719D01*
X27160Y10716D01*
X27222Y10692D01*
X27472Y10698D01*
X27721Y10684D01*
X27784Y10706D01*
X27851Y10708D01*
X28079Y10809D01*
X28315Y10892D01*
X28365Y10936D01*
X28426Y10963D01*
X28598Y11144D01*
X28784Y11311D01*
X28813Y11371D01*
X28859Y11419D01*
X28949Y11653D01*
X29057Y11878D01*
X29418Y13275D01*
X29679Y13791D01*
X29961Y13735D01*
X30241Y13669D01*
X30269Y13674D01*
X30296Y13668D01*
X30896D01*
X31513Y13791D01*
X32036Y14140D01*
X32385Y14663D01*
X32508Y15280D01*
X32385Y15897D01*
X32036Y16420D01*
X31513Y16770D01*
X31455Y16781D01*
X30606Y19046D01*
X30602Y19052D01*
X30724Y19412D01*
X30860Y19585D01*
X30950Y19654D01*
X31890D01*
X31890Y19654D01*
X32504Y19776D01*
X33025Y20124D01*
X33465Y20564D01*
X33904Y20124D01*
X33904Y20124D01*
X34425Y19776D01*
X35039Y19654D01*
X36614D01*
X36614Y19654D01*
X37229Y19776D01*
X37749Y20124D01*
X37842Y20217D01*
X38618Y20141D01*
X38628Y20124D01*
X39149Y19776D01*
X39764Y19654D01*
X41339D01*
X41953Y19776D01*
X42474Y20124D01*
X42822Y20645D01*
X42944Y21260D01*
X42822Y21874D01*
X42474Y22395D01*
X42157Y22607D01*
Y23850D01*
X42474Y24061D01*
X42822Y24582D01*
X42944Y25197D01*
X42822Y25811D01*
X42474Y26332D01*
X41687Y27120D01*
X41166Y27468D01*
X41064Y27488D01*
X40551Y27590D01*
D02*
G37*
G36*
X167636Y34646D02*
X159762D01*
Y26772D01*
X161966D01*
Y17168D01*
X156299D01*
X155454Y17000D01*
X154738Y16522D01*
X148439Y10222D01*
X147960Y9506D01*
X147792Y8661D01*
Y4152D01*
X147639Y4089D01*
X146661Y3339D01*
X145912Y2362D01*
X144088D01*
X143339Y3339D01*
X142361Y4089D01*
X141222Y4561D01*
X140000Y4721D01*
X138778Y4561D01*
X137639Y4089D01*
X136661Y3339D01*
X135912Y2362D01*
X134088D01*
X133339Y3339D01*
X132361Y4089D01*
X131222Y4561D01*
X130000Y4721D01*
X128778Y4561D01*
X127639Y4089D01*
X126661Y3339D01*
X125912Y2362D01*
X124088D01*
X123339Y3339D01*
X122361Y4089D01*
X121222Y4561D01*
X120000Y4721D01*
X118778Y4561D01*
X117639Y4089D01*
X116661Y3339D01*
X115912Y2362D01*
X114088D01*
X113339Y3339D01*
X112361Y4089D01*
X111222Y4561D01*
X110000Y4721D01*
X108778Y4561D01*
X107639Y4089D01*
X106661Y3339D01*
X105912Y2362D01*
X104088D01*
X103339Y3339D01*
X102361Y4089D01*
X101222Y4561D01*
X100000Y4721D01*
X98778Y4561D01*
X97639Y4089D01*
X96661Y3339D01*
X95912Y2362D01*
X94088D01*
X93339Y3339D01*
X92361Y4089D01*
X91222Y4561D01*
X90000Y4721D01*
X88778Y4561D01*
X87639Y4089D01*
X86661Y3339D01*
X85912Y2362D01*
X84088D01*
X83339Y3339D01*
X82361Y4089D01*
X81222Y4561D01*
X80000Y4721D01*
X78778Y4561D01*
X77639Y4089D01*
X76661Y3339D01*
X75912Y2362D01*
X74088D01*
X73339Y3339D01*
X72361Y4089D01*
X71222Y4561D01*
X70000Y4721D01*
X68778Y4561D01*
X67639Y4089D01*
X66661Y3339D01*
X65912Y2362D01*
X64088D01*
X63339Y3339D01*
X62361Y4089D01*
X61222Y4561D01*
X60000Y4721D01*
X58778Y4561D01*
X57639Y4089D01*
X56661Y3339D01*
X55912Y2362D01*
X54088D01*
X53339Y3339D01*
X52361Y4089D01*
X51222Y4561D01*
X50000Y4721D01*
X48778Y4561D01*
X47639Y4089D01*
X46661Y3339D01*
X45912Y2362D01*
X44088D01*
X43339Y3339D01*
X42361Y4089D01*
X41222Y4561D01*
X40000Y4721D01*
X38778Y4561D01*
X37639Y4089D01*
X36661Y3339D01*
X35912Y2362D01*
X34088D01*
X33339Y3339D01*
X32361Y4089D01*
X31222Y4561D01*
X30000Y4721D01*
X28778Y4561D01*
X27639Y4089D01*
X26661Y3339D01*
X25912Y2362D01*
X24088D01*
X23339Y3339D01*
X22361Y4089D01*
X21222Y4561D01*
X20000Y4721D01*
X18778Y4561D01*
X17639Y4089D01*
X16661Y3339D01*
X15912Y2362D01*
X14088D01*
X13339Y3339D01*
X12361Y4089D01*
X11222Y4561D01*
X10000Y4721D01*
X8778Y4561D01*
X7639Y4089D01*
X6661Y3339D01*
X5912Y2362D01*
X4681D01*
Y4681D01*
X-4681D01*
Y-4681D01*
X4681D01*
Y-2756D01*
X6214D01*
X6661Y-3339D01*
X7639Y-4089D01*
X8778Y-4561D01*
X10000Y-4721D01*
X11222Y-4561D01*
X12361Y-4089D01*
X13339Y-3339D01*
X13786Y-2756D01*
X16214D01*
X16661Y-3339D01*
X17639Y-4089D01*
X18778Y-4561D01*
X20000Y-4721D01*
X21222Y-4561D01*
X22361Y-4089D01*
X23339Y-3339D01*
X23786Y-2756D01*
X26214D01*
X26661Y-3339D01*
X27639Y-4089D01*
X28778Y-4561D01*
X30000Y-4721D01*
X31222Y-4561D01*
X32361Y-4089D01*
X33339Y-3339D01*
X33786Y-2756D01*
X36214D01*
X36661Y-3339D01*
X37639Y-4089D01*
X38778Y-4561D01*
X40000Y-4721D01*
X41222Y-4561D01*
X42361Y-4089D01*
X43339Y-3339D01*
X43786Y-2756D01*
X46214D01*
X46661Y-3339D01*
X47639Y-4089D01*
X48778Y-4561D01*
X50000Y-4721D01*
X51222Y-4561D01*
X52361Y-4089D01*
X53339Y-3339D01*
X53786Y-2756D01*
X56214D01*
X56661Y-3339D01*
X57639Y-4089D01*
X58778Y-4561D01*
X60000Y-4721D01*
X61222Y-4561D01*
X62361Y-4089D01*
X63339Y-3339D01*
X63786Y-2756D01*
X66214D01*
X66661Y-3339D01*
X67639Y-4089D01*
X68778Y-4561D01*
X70000Y-4721D01*
X71222Y-4561D01*
X72361Y-4089D01*
X73339Y-3339D01*
X73786Y-2756D01*
X76214D01*
X76661Y-3339D01*
X77639Y-4089D01*
X78778Y-4561D01*
X80000Y-4721D01*
X81222Y-4561D01*
X82361Y-4089D01*
X83339Y-3339D01*
X83786Y-2756D01*
X86214D01*
X86661Y-3339D01*
X87639Y-4089D01*
X88778Y-4561D01*
X90000Y-4721D01*
X91222Y-4561D01*
X92361Y-4089D01*
X93339Y-3339D01*
X93786Y-2756D01*
X96214D01*
X96661Y-3339D01*
X97639Y-4089D01*
X98778Y-4561D01*
X100000Y-4721D01*
X101222Y-4561D01*
X102361Y-4089D01*
X103339Y-3339D01*
X103786Y-2756D01*
X106214D01*
X106661Y-3339D01*
X107639Y-4089D01*
X108778Y-4561D01*
X110000Y-4721D01*
X111222Y-4561D01*
X112361Y-4089D01*
X113339Y-3339D01*
X113786Y-2756D01*
X116214D01*
X116661Y-3339D01*
X117639Y-4089D01*
X118778Y-4561D01*
X120000Y-4721D01*
X121222Y-4561D01*
X122361Y-4089D01*
X123339Y-3339D01*
X123786Y-2756D01*
X126214D01*
X126661Y-3339D01*
X127639Y-4089D01*
X128778Y-4561D01*
X130000Y-4721D01*
X131222Y-4561D01*
X132361Y-4089D01*
X133339Y-3339D01*
X133786Y-2756D01*
X136214D01*
X136661Y-3339D01*
X137639Y-4089D01*
X138778Y-4561D01*
X140000Y-4721D01*
X141222Y-4561D01*
X142361Y-4089D01*
X143339Y-3339D01*
X143786Y-2756D01*
X146214D01*
X146661Y-3339D01*
X147639Y-4089D01*
X148778Y-4561D01*
X150000Y-4721D01*
X151222Y-4561D01*
X152361Y-4089D01*
X153339Y-3339D01*
X153786Y-2756D01*
X153937D01*
Y-2559D01*
X154089Y-2361D01*
X154561Y-1222D01*
X154721Y0D01*
X154561Y1222D01*
X154089Y2361D01*
X153339Y3339D01*
X152361Y4089D01*
X152208Y4152D01*
Y7747D01*
X157214Y12753D01*
X163712D01*
X164557Y12921D01*
X165273Y13399D01*
X165734Y13861D01*
X166213Y14577D01*
X166381Y15422D01*
Y26772D01*
X167636D01*
Y34646D01*
D02*
G37*
G36*
X160492Y4458D02*
Y492D01*
X164458D01*
X164369Y1171D01*
X163917Y2262D01*
X163198Y3198D01*
X162261Y3917D01*
X161171Y4369D01*
X160492Y4458D01*
D02*
G37*
G36*
X159508D02*
X158829Y4369D01*
X157738Y3917D01*
X156802Y3198D01*
X156083Y2262D01*
X155631Y1171D01*
X155542Y492D01*
X159508D01*
Y4458D01*
D02*
G37*
G36*
X164458Y-492D02*
X160492D01*
Y-4458D01*
X161171Y-4369D01*
X162261Y-3917D01*
X163198Y-3198D01*
X163917Y-2262D01*
X164369Y-1171D01*
X164458Y-492D01*
D02*
G37*
G36*
X159508D02*
X155542D01*
X155631Y-1171D01*
X156083Y-2262D01*
X156802Y-3198D01*
X157738Y-3917D01*
X158829Y-4369D01*
X159508Y-4458D01*
Y-492D01*
D02*
G37*
%LPD*%
G36*
X147639Y115911D02*
X148394Y115598D01*
Y107106D01*
X144963Y103674D01*
X113632D01*
X113382Y104277D01*
X121206Y112101D01*
X121576Y112654D01*
X121706Y113307D01*
Y115640D01*
X122361Y115911D01*
X123174Y116535D01*
X126826D01*
X127639Y115911D01*
X128778Y115439D01*
X130000Y115278D01*
X131222Y115439D01*
X132361Y115911D01*
X133174Y116535D01*
X136826D01*
X137639Y115911D01*
X138778Y115439D01*
X140000Y115278D01*
X141222Y115439D01*
X142361Y115911D01*
X143174Y116535D01*
X146826D01*
X147639Y115911D01*
D02*
G37*
G36*
X107639D02*
X108294Y115640D01*
Y109526D01*
X98069Y99301D01*
X97433Y99517D01*
X97345Y100189D01*
X96968Y101099D01*
X96368Y101880D01*
X95587Y102480D01*
X94677Y102857D01*
X93701Y102985D01*
X92724Y102857D01*
X91815Y102480D01*
X91033Y101880D01*
X90434Y101099D01*
X90057Y100189D01*
X89968Y99516D01*
X89361D01*
X89279Y100138D01*
X88922Y100999D01*
X88354Y101740D01*
X87614Y102308D01*
X86752Y102665D01*
X86573Y102688D01*
X86380Y103259D01*
X98624Y115503D01*
X98778Y115439D01*
X100000Y115278D01*
X101222Y115439D01*
X102361Y115911D01*
X103174Y116535D01*
X106826D01*
X107639Y115911D01*
D02*
G37*
G36*
X37639D02*
X38294Y115640D01*
Y104095D01*
X38424Y103442D01*
X38794Y102888D01*
X40026Y101656D01*
Y97638D01*
X32990D01*
Y89764D01*
X37320D01*
X37614Y89161D01*
X37400Y88842D01*
X37270Y88189D01*
Y79709D01*
X36714Y79478D01*
X30133Y86059D01*
Y89764D01*
X32364D01*
Y97638D01*
X24490D01*
Y89764D01*
X26721D01*
Y85352D01*
X26851Y84700D01*
X27221Y84146D01*
X35171Y76196D01*
Y74591D01*
X33439Y72860D01*
X33070Y72306D01*
X32940Y71653D01*
Y71055D01*
X32540Y70748D01*
X32066Y70131D01*
X31836Y69574D01*
X31234Y69694D01*
Y74016D01*
X31104Y74669D01*
X30734Y75222D01*
X21706Y84250D01*
Y115640D01*
X22361Y115911D01*
X23174Y116535D01*
X26826D01*
X27639Y115911D01*
X28778Y115439D01*
X30000Y115278D01*
X31222Y115439D01*
X32361Y115911D01*
X33174Y116535D01*
X36826D01*
X37639Y115911D01*
D02*
G37*
G36*
X86319Y94916D02*
X86752Y94973D01*
X87614Y95330D01*
X88354Y95898D01*
X88922Y96638D01*
X89279Y97500D01*
X89361Y98122D01*
X89968D01*
X90057Y97449D01*
X90434Y96539D01*
X91033Y95758D01*
X91815Y95158D01*
X92724Y94781D01*
X92779Y94774D01*
X92972Y94204D01*
X85908Y87139D01*
X77821D01*
X77488Y87741D01*
X77680Y88206D01*
X77781Y88976D01*
X77716Y89476D01*
X83096Y94857D01*
X83290Y95147D01*
X84001Y95340D01*
X84062Y95321D01*
X84902Y94973D01*
X85335Y94916D01*
Y98819D01*
X86319D01*
Y94916D01*
D02*
G37*
G36*
X144537Y99706D02*
X128321Y83490D01*
X127951Y82936D01*
X127822Y82284D01*
Y73148D01*
X122522Y67848D01*
X90634D01*
X90252Y68313D01*
X90289Y68498D01*
Y74352D01*
X90568Y74521D01*
X90891Y74602D01*
X91424Y74192D01*
X92143Y73895D01*
X92913Y73793D01*
X93684Y73895D01*
X94402Y74192D01*
X95019Y74666D01*
X95493Y75283D01*
X95790Y76001D01*
X95892Y76772D01*
X95790Y77543D01*
X95778Y77572D01*
X98389Y80184D01*
X120422D01*
X120729Y79784D01*
X121345Y79311D01*
X122064Y79013D01*
X122835Y78912D01*
X123606Y79013D01*
X124324Y79311D01*
X124941Y79784D01*
X125414Y80401D01*
X125711Y81119D01*
X125813Y81890D01*
X125711Y82661D01*
X125414Y83379D01*
X124941Y83996D01*
X124324Y84469D01*
X123606Y84767D01*
X122835Y84868D01*
X122064Y84767D01*
X121345Y84469D01*
X120729Y83996D01*
X120422Y83596D01*
X97884D01*
X97619Y84126D01*
X97613Y84177D01*
X113699Y100262D01*
X144307D01*
X144537Y99706D01*
D02*
G37*
D11*
X40551Y21260D02*
Y25984D01*
X41339Y25197D01*
X39764Y21260D02*
X41339D01*
X35827Y22441D02*
Y24803D01*
X36614Y21260D02*
X37402Y22047D01*
Y25197D01*
X36614Y25984D02*
X37402Y25197D01*
X35039Y25984D02*
X36614D01*
X34252Y25197D02*
X35039Y25984D01*
X34252Y22047D02*
Y25197D01*
Y22047D02*
X35039Y21260D01*
X36614D01*
X31890Y25984D02*
X32677Y25197D01*
X30315Y25984D02*
X31890D01*
X29528Y25197D02*
X30315Y25984D01*
X29528Y24409D02*
Y25197D01*
Y24409D02*
X30315Y23622D01*
Y23622D02*
Y23622D01*
X31102D01*
X30315Y23622D02*
Y23622D01*
X29528Y22835D02*
X30315Y23622D01*
X29528Y22047D02*
Y22835D01*
Y22047D02*
X30315Y21260D01*
X31890D01*
X32677Y22047D01*
X24803Y24409D02*
X27165D01*
X27953Y23622D01*
Y22047D02*
Y23622D01*
X27165Y21260D02*
X27953Y22047D01*
X24803Y21260D02*
X27165D01*
X23228D02*
Y25984D01*
X20866Y21260D02*
X23228D01*
X20079Y22047D02*
X20866Y21260D01*
X20079Y22047D02*
Y23622D01*
X20866Y24409D01*
X23228D01*
X15354Y20472D02*
X18504D01*
X13780Y21260D02*
Y25984D01*
X10630Y21260D02*
Y23622D01*
X11417Y24409D01*
X12992D01*
X13780Y23622D01*
X7480Y21260D02*
Y23622D01*
X5906Y21260D02*
Y23622D01*
X5906D01*
X6693Y24409D01*
X7480Y23622D01*
X8268Y24409D01*
X9055D01*
Y21260D02*
Y24409D01*
D12*
X13296Y14480D02*
X14296Y8280D01*
Y15280D01*
X21896Y14880D02*
X22496Y12280D01*
Y15480D01*
X24696D01*
X26096Y18480D01*
X27496Y12280D01*
X29096Y18480D01*
X30296Y15280D01*
X30896D01*
X15296Y12280D02*
X18496D01*
X19296Y15280D01*
X21096D01*
X21896Y14880D01*
X14296Y15280D02*
X15296Y12280D01*
X14296Y15280D02*
X15096Y18480D01*
X18496D01*
X19296Y15280D01*
D14*
X92913Y76772D02*
Y77121D01*
X97683Y81890D01*
X123228Y66142D02*
X129528Y72441D01*
X71182Y47167D02*
X90158Y66142D01*
X123228D01*
X129528Y72441D02*
Y82284D01*
X112992Y101969D02*
X145669D01*
X150100Y106399D02*
Y119900D01*
X145669Y101969D02*
X150100Y106399D01*
X159947Y112703D02*
Y119947D01*
X129528Y82284D02*
X159947Y112703D01*
X97683Y81890D02*
X122835D01*
X121653Y52362D02*
Y59842D01*
X94882Y37795D02*
X95276Y38189D01*
X90945Y37795D02*
X94882D01*
X89370Y39370D02*
X90945Y37795D01*
X89370Y39370D02*
Y44488D01*
X93701D02*
Y48425D01*
Y44488D02*
X95669Y42520D01*
X81890Y101181D02*
X100000Y119291D01*
X81890Y96063D02*
Y101181D01*
X100000Y119291D02*
Y120000D01*
X38976Y63386D02*
X42520Y59842D01*
X38976Y88189D02*
X41732Y90945D01*
X38976Y63386D02*
Y88189D01*
X28427Y85352D02*
X36877Y76903D01*
Y73885D02*
Y76903D01*
X34646Y71653D02*
X36877Y73885D01*
X48819Y59842D02*
X51575Y57087D01*
X42520Y59842D02*
X48819D01*
X51575Y49213D02*
Y57087D01*
X29921Y55905D02*
X47244D01*
X40000Y104095D02*
X41732Y102362D01*
Y90945D02*
Y102362D01*
X68898Y46850D02*
X69214Y47167D01*
X71182D01*
X28427Y85352D02*
Y93701D01*
X40000Y104095D02*
Y120000D01*
X20000Y83543D02*
Y120000D01*
Y83543D02*
X29528Y74016D01*
Y66535D02*
Y74016D01*
X34646Y68642D02*
Y71653D01*
X26378Y59449D02*
Y70866D01*
Y59449D02*
X29921Y55905D01*
X84646Y50394D02*
Y50787D01*
X90158Y56299D02*
X103937D01*
X84646Y50787D02*
X90158Y56299D01*
X88583Y68498D02*
Y77559D01*
X69363Y53937D02*
X74022D01*
X88583Y68498D01*
X74803Y88976D02*
X81890Y96063D01*
X103937Y56299D02*
X105438Y54799D01*
Y54799D02*
Y54799D01*
Y54799D02*
X108268Y51968D01*
X47638Y45276D02*
X51575Y49213D01*
X159947Y119947D02*
X160000Y120000D01*
X150000D02*
X150100Y119900D01*
X88583Y77559D02*
X112992Y101969D01*
X72835Y76772D02*
X83465D01*
X120000Y113307D01*
Y120000D01*
X74803Y85433D02*
X86614D01*
X110000Y108819D01*
Y120000D01*
X95669Y42520D02*
X122047D01*
X71260Y81890D02*
X74803Y85433D01*
D15*
X-9843Y-7874D02*
Y129921D01*
X183071D01*
X183071Y-7874D01*
X-9843D02*
X183071D01*
D16*
X163699Y29134D02*
X164173Y28659D01*
X156299Y14961D02*
X163712D01*
X164173Y15422D02*
Y28659D01*
X163712Y14961D02*
X164173Y15422D01*
X150000Y8661D02*
X156299Y14961D01*
X150000Y0D02*
Y8661D01*
D59*
X122835Y25984D02*
X127559D01*
X90945Y26772D02*
X122047D01*
X122835Y25984D01*
X22047Y36220D02*
X22590Y36763D01*
Y38731D01*
X25197Y41339D01*
X35039D01*
X36220Y40157D01*
X46457D01*
X70472Y41339D02*
X76378D01*
X90945Y26772D01*
X61024Y89370D02*
X70079Y98425D01*
Y98819D01*
X47244Y89370D02*
X61024D01*
D60*
X0Y120000D02*
D03*
Y0D02*
D03*
D61*
X10000Y120000D02*
D03*
X20000D02*
D03*
X30000D02*
D03*
X40000D02*
D03*
X50000D02*
D03*
X60000D02*
D03*
X70000D02*
D03*
X80000D02*
D03*
X90000D02*
D03*
X100000D02*
D03*
X110000D02*
D03*
X120000D02*
D03*
X130000D02*
D03*
X140000D02*
D03*
X150000D02*
D03*
X160000D02*
D03*
Y0D02*
D03*
X150000D02*
D03*
X140000D02*
D03*
X130000D02*
D03*
X120000D02*
D03*
X110000D02*
D03*
X100000D02*
D03*
X90000D02*
D03*
X80000D02*
D03*
X70000D02*
D03*
X60000D02*
D03*
X50000D02*
D03*
X40000D02*
D03*
X30000D02*
D03*
X20000D02*
D03*
X10000D02*
D03*
D62*
X161024Y66929D02*
D03*
X161024Y49606D02*
D03*
X29528Y36614D02*
D03*
X62205Y96457D02*
D03*
X65748Y88976D02*
D03*
X47244Y101969D02*
D03*
X36220D02*
D03*
X25197Y109449D02*
D03*
X92913Y76772D02*
D03*
X127559Y25984D02*
D03*
X168504Y111024D02*
D03*
X145669Y109449D02*
D03*
X135039Y107874D02*
D03*
X153150Y85433D02*
D03*
X122835Y81890D02*
D03*
X121653Y59842D02*
D03*
Y52362D02*
D03*
X102756Y60236D02*
D03*
X95276Y38189D02*
D03*
X135433Y14567D02*
D03*
X92520Y21260D02*
D03*
X89370Y44488D02*
D03*
X93701Y48425D02*
D03*
X85039Y110236D02*
D03*
X77953Y72835D02*
D03*
X47244Y55905D02*
D03*
X74803Y23622D02*
D03*
X135827Y98032D02*
D03*
X104724Y109843D02*
D03*
X-2362Y75984D02*
D03*
X88189Y35433D02*
D03*
X133071Y68504D02*
D03*
X14961Y102756D02*
D03*
X32677Y75197D02*
D03*
X34646Y68642D02*
D03*
X26378Y70866D02*
D03*
X29528Y66535D02*
D03*
X84646Y50394D02*
D03*
X22047Y36220D02*
D03*
X46457Y40157D02*
D03*
X70472Y41339D02*
D03*
X47244Y50787D02*
D03*
Y89370D02*
D03*
X68898Y46850D02*
D03*
X69363Y53937D02*
D03*
X65354Y40945D02*
D03*
X127559Y31890D02*
D03*
X122047Y47638D02*
D03*
X113779Y50394D02*
D03*
X108268Y51968D02*
D03*
X94882Y72047D02*
D03*
X68898Y59842D02*
D03*
X51181Y64961D02*
D03*
X47638Y45276D02*
D03*
X122047Y42520D02*
D03*
X72835Y76772D02*
D03*
X71260Y81890D02*
D03*
X74803Y88976D02*
D03*
D63*
X10236Y77716D02*
D03*
Y42756D02*
D03*
D64*
X36927Y93701D02*
D03*
X28427D02*
D03*
X163699Y30709D02*
D03*
X155199D02*
D03*
D65*
X70079Y98819D02*
D03*
X77953D02*
D03*
X85827D02*
D03*
X93701D02*
D03*
M02*
