G04*
G04 #@! TF.GenerationSoftware,Altium Limited,Altium Designer,20.2.6 (244)*
G04*
G04 Layer_Color=8388736*
%FSLAX25Y25*%
%MOIN*%
G70*
G04*
G04 #@! TF.SameCoordinates,05D6BC93-F204-4B59-986D-561AD4BAE22A*
G04*
G04*
G04 #@! TF.FilePolarity,Negative*
G04*
G01*
G75*
%ADD15C,0.01000*%
%ADD17R,0.13787X0.08587*%
%ADD18R,0.13780X0.02756*%
%ADD19R,0.08661X0.08587*%
%ADD20R,0.04724X0.05118*%
%ADD21R,0.03937X0.03937*%
%ADD22R,0.05787X0.05787*%
%ADD23R,0.01987X0.06287*%
%ADD24R,0.03937X0.03937*%
%ADD25R,0.03347X0.06787*%
%ADD26R,0.02756X0.06787*%
%ADD27R,0.06787X0.13787*%
%ADD28R,0.05787X0.04387*%
%ADD29R,0.04387X0.04387*%
%ADD30R,0.06299X0.01968*%
%ADD31R,0.01968X0.06299*%
%ADD32R,0.10787X0.06787*%
%ADD33C,0.01732*%
%ADD34C,0.01575*%
%ADD35C,0.02362*%
%ADD36C,0.01800*%
%ADD37R,0.07787X0.07787*%
%ADD38C,0.07787*%
%ADD39C,0.04331*%
%ADD40R,0.09055X0.23622*%
%ADD41R,0.06299X0.06299*%
%ADD42O,0.05906X0.06693*%
D15*
X-9843Y-7874D02*
Y129921D01*
X183071D01*
X183071Y-7874D01*
X-9843D02*
X183071D01*
D17*
X149606Y75787D02*
D03*
Y40748D02*
D03*
D18*
Y51968D02*
D03*
Y55118D02*
D03*
Y58268D02*
D03*
Y61417D02*
D03*
Y64567D02*
D03*
D19*
X172835Y75787D02*
D03*
X172835Y40748D02*
D03*
D20*
X115748Y26181D02*
D03*
Y32874D02*
D03*
X99213Y87992D02*
D03*
Y81299D02*
D03*
D21*
X83071Y70079D02*
D03*
Y63779D02*
D03*
X133071Y29528D02*
D03*
Y23228D02*
D03*
X122047Y22835D02*
D03*
Y29134D02*
D03*
X92520Y81890D02*
D03*
Y88189D02*
D03*
X32283Y41732D02*
D03*
Y48031D02*
D03*
X27165Y41732D02*
D03*
Y48031D02*
D03*
X22047Y41732D02*
D03*
Y48031D02*
D03*
X117717Y75197D02*
D03*
Y81496D02*
D03*
X-2362Y56693D02*
D03*
Y50394D02*
D03*
Y63779D02*
D03*
Y70079D02*
D03*
D22*
X93701Y64880D02*
D03*
Y56380D02*
D03*
D23*
X99911Y67312D02*
D03*
X102411D02*
D03*
X104911D02*
D03*
X107411D02*
D03*
X109911D02*
D03*
X112411D02*
D03*
X114911D02*
D03*
X117411D02*
D03*
Y43712D02*
D03*
X114911D02*
D03*
X112411D02*
D03*
X109911D02*
D03*
X107411D02*
D03*
X104911D02*
D03*
X102411D02*
D03*
X99911D02*
D03*
D24*
X127165Y63386D02*
D03*
X133465D02*
D03*
X127165Y48031D02*
D03*
X133465D02*
D03*
X106299Y80315D02*
D03*
X112598D02*
D03*
Y85433D02*
D03*
X106299D02*
D03*
X127165Y58268D02*
D03*
X133465D02*
D03*
X127165Y53150D02*
D03*
X133465D02*
D03*
X112598Y75197D02*
D03*
X106299D02*
D03*
X21260Y97638D02*
D03*
X14961D02*
D03*
X133071Y42520D02*
D03*
X126772D02*
D03*
Y37402D02*
D03*
X133071D02*
D03*
X24016Y53937D02*
D03*
X30315D02*
D03*
X32677Y85827D02*
D03*
X26378D02*
D03*
X153937Y23228D02*
D03*
X160236D02*
D03*
X26378Y80315D02*
D03*
X32677D02*
D03*
X47244Y82677D02*
D03*
X40945D02*
D03*
X47244Y77559D02*
D03*
X40945D02*
D03*
X69291Y28740D02*
D03*
X75591D02*
D03*
D25*
X109744Y25909D02*
D03*
Y35509D02*
D03*
X99705Y25909D02*
D03*
Y35509D02*
D03*
D26*
X106299Y25909D02*
D03*
Y35509D02*
D03*
X103150Y25909D02*
D03*
Y35509D02*
D03*
D27*
X145374Y89370D02*
D03*
X170374D02*
D03*
D28*
X147370Y26909D02*
D03*
D29*
X139370Y23209D02*
D03*
Y30709D02*
D03*
D30*
X40043Y63972D02*
D03*
Y62004D02*
D03*
Y60035D02*
D03*
Y58067D02*
D03*
Y56098D02*
D03*
Y54130D02*
D03*
Y52161D02*
D03*
Y50193D02*
D03*
Y48224D02*
D03*
Y46256D02*
D03*
Y44287D02*
D03*
Y42319D02*
D03*
X76264D02*
D03*
Y44287D02*
D03*
Y46256D02*
D03*
Y48224D02*
D03*
Y50193D02*
D03*
Y52161D02*
D03*
Y54130D02*
D03*
Y56098D02*
D03*
Y58067D02*
D03*
Y60035D02*
D03*
Y62004D02*
D03*
Y63972D02*
D03*
D31*
X68980Y35035D02*
D03*
X67012D02*
D03*
X65043D02*
D03*
X63075D02*
D03*
X61106D02*
D03*
X59138D02*
D03*
X57169D02*
D03*
X55201D02*
D03*
X53232D02*
D03*
X51264D02*
D03*
X49295D02*
D03*
X47327D02*
D03*
X68980Y71256D02*
D03*
X67012D02*
D03*
X65043D02*
D03*
X63075D02*
D03*
X61106D02*
D03*
X59138D02*
D03*
X57169D02*
D03*
X55201D02*
D03*
X53232D02*
D03*
X51264D02*
D03*
X49295D02*
D03*
X47327D02*
D03*
D32*
X133465Y89878D02*
D03*
Y76378D02*
D03*
D33*
X27165Y12598D02*
Y14961D01*
D34*
X28740Y12598D02*
Y14961D01*
X28740D02*
X28740D01*
X27953Y15748D02*
X28740Y14961D01*
X27165D02*
X27953Y15748D01*
X26378D02*
X27165Y14961D01*
X25591Y15748D02*
X26378D01*
X25591Y12598D02*
Y15748D01*
X20866Y12598D02*
Y17323D01*
X24016Y12598D02*
Y14961D01*
X23228Y15748D02*
X24016Y14961D01*
X21654Y15748D02*
X23228D01*
X20866Y14961D02*
X21654Y15748D01*
X16142Y11811D02*
X19291D01*
X11417Y15748D02*
X13780D01*
X14567Y14961D01*
Y13386D02*
Y14961D01*
X13780Y12598D02*
X14567Y13386D01*
X11417Y12598D02*
X13780D01*
X11417D02*
Y17323D01*
X7480Y12598D02*
X9843D01*
X6693Y13386D02*
X7480Y12598D01*
X6693Y13386D02*
Y14961D01*
X7480Y15748D01*
X9843D01*
X1969Y16535D02*
X2756Y17323D01*
X4331D01*
X5118Y16535D01*
Y15748D02*
Y16535D01*
X4331Y14961D02*
X5118Y15748D01*
X4331Y14961D02*
Y14961D01*
X3543D02*
X4331D01*
Y14961D02*
Y14961D01*
Y14961D02*
X5118Y14173D01*
Y13386D02*
Y14173D01*
X4331Y12598D02*
X5118Y13386D01*
X2756Y12598D02*
X4331D01*
X1969Y13386D02*
X2756Y12598D01*
X-2756Y13386D02*
X-1969Y12598D01*
X-2756Y13386D02*
Y16535D01*
X-1969Y17323D01*
X-394D01*
X394Y16535D01*
Y13386D02*
Y16535D01*
X-394Y12598D02*
X394Y13386D01*
X-1969Y12598D02*
X-394D01*
X-5906D02*
Y17323D01*
X-6693Y16535D02*
X-5906Y17323D01*
X-6693Y12598D02*
X-5118D01*
D35*
X-1181Y13780D02*
Y16142D01*
D36*
X17200Y16154D02*
X18200Y22354D01*
X17200Y16154D02*
X17200Y23154D01*
X9000Y20154D02*
X9600Y22754D01*
X9000Y20154D02*
Y23354D01*
X6800Y23354D02*
X9000Y23354D01*
X5400Y26354D02*
X6800Y23354D01*
X4000Y20154D02*
X5400Y26354D01*
X2400D02*
X4000Y20154D01*
X1200Y23154D02*
X2400Y26354D01*
X600Y23154D02*
X1200Y23154D01*
X13000Y20154D02*
X16200D01*
X12200Y23154D02*
X13000Y20154D01*
X10400Y23154D02*
X12200Y23154D01*
X9600Y22754D02*
X10400Y23154D01*
X16200Y20154D02*
X17200Y23154D01*
X16400Y26354D02*
X17200Y23154D01*
X13000Y26354D02*
X16400D01*
X12200Y23154D02*
X13000Y26354D01*
D37*
X0Y120000D02*
D03*
Y0D02*
D03*
D38*
X10000Y120000D02*
D03*
X20000D02*
D03*
X30000D02*
D03*
X40000D02*
D03*
X50000D02*
D03*
X60000D02*
D03*
X70000D02*
D03*
X80000D02*
D03*
X90000D02*
D03*
X100000D02*
D03*
X110000D02*
D03*
X120000D02*
D03*
X130000D02*
D03*
X140000D02*
D03*
X150000D02*
D03*
X160000D02*
D03*
Y0D02*
D03*
X150000D02*
D03*
X140000D02*
D03*
X130000D02*
D03*
X120000D02*
D03*
X110000D02*
D03*
X100000D02*
D03*
X90000D02*
D03*
X80000D02*
D03*
X70000D02*
D03*
X60000D02*
D03*
X50000D02*
D03*
X40000D02*
D03*
X30000D02*
D03*
X20000D02*
D03*
X10000D02*
D03*
D39*
X161024Y66929D02*
D03*
X161024Y49606D02*
D03*
X29528Y36614D02*
D03*
X62205Y96457D02*
D03*
X65748Y88976D02*
D03*
X47244Y101969D02*
D03*
X36220D02*
D03*
X25197Y109449D02*
D03*
X92913Y76772D02*
D03*
X127559Y25984D02*
D03*
X168504Y111024D02*
D03*
X145669Y109449D02*
D03*
X135039Y107874D02*
D03*
X153150Y85433D02*
D03*
X122835Y81890D02*
D03*
X121653Y59842D02*
D03*
Y52362D02*
D03*
X102756Y60236D02*
D03*
X95276Y38189D02*
D03*
X135433Y14567D02*
D03*
X92520Y21260D02*
D03*
X89370Y44488D02*
D03*
X93701Y48425D02*
D03*
X85039Y110236D02*
D03*
X77953Y72835D02*
D03*
X47244Y55905D02*
D03*
X74803Y23622D02*
D03*
X135827Y98032D02*
D03*
X104724Y109843D02*
D03*
X-2362Y75984D02*
D03*
X88189Y35433D02*
D03*
X133071Y68504D02*
D03*
X14961Y102756D02*
D03*
X32677Y75197D02*
D03*
X34646Y68642D02*
D03*
X26378Y70866D02*
D03*
X29528Y66535D02*
D03*
X84646Y50394D02*
D03*
X22047Y36220D02*
D03*
X46457Y40157D02*
D03*
X70472Y41339D02*
D03*
X47244Y50787D02*
D03*
Y89370D02*
D03*
X68898Y46850D02*
D03*
X69363Y53937D02*
D03*
X65354Y40945D02*
D03*
X127559Y31890D02*
D03*
X122047Y47638D02*
D03*
X113779Y50394D02*
D03*
X108268Y51968D02*
D03*
X94882Y72047D02*
D03*
X68898Y59842D02*
D03*
X51181Y64961D02*
D03*
X47638Y45276D02*
D03*
X122047Y42520D02*
D03*
X72835Y76772D02*
D03*
X71260Y81890D02*
D03*
X74803Y88976D02*
D03*
D40*
X10236Y77716D02*
D03*
Y42756D02*
D03*
D41*
X36927Y93701D02*
D03*
X28427D02*
D03*
X163699Y30709D02*
D03*
X155199D02*
D03*
D42*
X70079Y98819D02*
D03*
X77953D02*
D03*
X85827D02*
D03*
X93701D02*
D03*
M02*
